<?xml version="1.0" encoding="utf-8"?>
<!-- Generator: Adobe Illustrator 22.0.1, SVG Export Plug-In . SVG Version: 6.00 Build 0)  -->
<svg version="1.1" id="图层_1" xmlns="http://www.w3.org/2000/svg" xmlns:xlink="http://www.w3.org/1999/xlink" x="0px" y="0px"
	 viewBox="0 0 3840 1025.5" enable-background="new 0 0 3840 1025.5" xml:space="preserve">
<g>
	<circle fill="#666666" cx="2103.4" cy="512.4" r="6.8"/>
	<g>
		<g>
			<path fill="#666666" d="M2495,478.8"/>
		</g>
		<g>
			<path fill="#666666" d="M2598.1,483H2495c-2.3,0-4.2-1.9-4.2-4.2s1.9-4.2,4.2-4.2h103.1c2.3,0,4.2,1.9,4.2,4.2
				S2600.4,483,2598.1,483z"/>
		</g>
		<g>
			<path fill="#666666" d="M2598.1,536H2495c-2.3,0-4.2-1.9-4.2-4.2c0-2.3,1.9-4.2,4.2-4.2h103.1c2.3,0,4.2,1.9,4.2,4.2
				C2602.3,534.2,2600.4,536,2598.1,536z"/>
		</g>
		<g>
			<path fill="#666666" d="M2495,536c-2.3,0-4.2-1.9-4.2-4.2v-53.1c0-2.3,1.9-4.2,4.2-4.2c2.3,0,4.2,1.9,4.2,4.2v53.1
				C2499.2,534.2,2497.3,536,2495,536z"/>
		</g>
		<g>
			<path fill="#666666" d="M2546.9,581.8c-2.3,0-4.2-1.9-4.2-4.2V455.2c0-2.3,1.9-4.2,4.2-4.2s4.2,1.9,4.2,4.2v122.4
				C2551.1,579.9,2549.2,581.8,2546.9,581.8z"/>
		</g>
		<g>
			<path fill="#666666" d="M2598.1,536c-2.3,0-4.2-1.9-4.2-4.2v-53.1c0-2.3,1.9-4.2,4.2-4.2s4.2,1.9,4.2,4.2v53.1
				C2602.3,534.2,2600.4,536,2598.1,536z"/>
		</g>
		<g>
			<path fill="#666666" d="M2637.9,552.8c-0.4,0-0.8-0.1-1.2-0.2c-2.2-0.7-3.4-3-2.7-5.2c5.3-16.9,6.7-65.7,6.7-66.2
				c0.1-2.3,2-4.2,4.3-4.1c2.3,0.1,4.1,2,4,4.3c-0.1,2.1-1.5,50.4-7.1,68.4C2641.3,551.6,2639.6,552.8,2637.9,552.8z"/>
		</g>
		<g>
			<path fill="#666666" d="M2723.5,580h-43.4c-12.8,0-16.7-11-17-16.8l0-94c0-2.3,1.9-4.2,4.2-4.2c2.3,0,4.2,1.9,4.2,4.2V563
				c0.1,1.3,0.9,8.7,8.6,8.7h43.4c1.9,0,6.5-0.7,6.5-6.5v-7.7c0-2.3,1.9-4.2,4.2-4.2c2.3,0,4.2,1.9,4.2,4.2v7.7
				C2738.3,576,2729.4,580,2723.5,580z"/>
		</g>
		<g>
			<path fill="#666666" d="M2754.3,555.3c-2.3,0-4.1-1.8-4.2-4.1c-0.3-23.5-11.9-70-12-70.5c-0.6-2.2,0.8-4.5,3-5.1
				c2.2-0.6,4.5,0.8,5.1,3c0.5,1.9,12,47.9,12.2,72.4C2758.5,553.4,2756.6,555.2,2754.3,555.3
				C2754.3,555.3,2754.3,555.3,2754.3,555.3z"/>
		</g>
		<g>
			<path fill="#666666" d="M2709.8,512.5c-2.3,0-4.2-1.9-4.2-4.2c0-31.7-7.6-50.2-7.7-50.4c-0.9-2.1,0.1-4.6,2.2-5.5
				c2.1-0.9,4.6,0.1,5.5,2.2c0.3,0.8,8.3,20.2,8.3,53.6C2714,510.6,2712.1,512.5,2709.8,512.5z"/>
		</g>
		<g>
			<path fill="#666666" d="M2187.9,503.6c-1.4,0-2.8-0.7-3.6-2c-1.2-2-0.5-4.5,1.4-5.7c27.5-16.4,34.1-40.2,34.1-40.4
				c0.6-2.2,2.9-3.6,5.1-3c2.2,0.6,3.6,2.9,3,5.1c-0.3,1.1-7.5,27.3-37.9,45.5C2189.4,503.4,2188.6,503.6,2187.9,503.6z"/>
		</g>
		<g>
			<path fill="#666666" d="M2260,503.6c-0.7,0-1.5-0.2-2.1-0.6c-30.4-18.2-37.6-44.4-37.9-45.5c-0.6-2.2,0.7-4.5,3-5.1
				c2.2-0.6,4.5,0.7,5.1,3c0.1,0.2,6.8,24.1,34.1,40.4c2,1.2,2.6,3.7,1.4,5.7C2262.8,502.9,2261.4,503.6,2260,503.6z"/>
		</g>
		<g>
			<path fill="#666666" d="M2215.8,581.7c-4.9,0-8.8-1.5-11.8-4.5c-4.6-4.7-4.6-11.3-4.6-12l0-59.9c0-2.3,1.9-4.2,4.2-4.2h42.8
				c2.3,0,4.2,1.9,4.2,4.2v26.7c-0.2,6.2-4.4,15.2-15.2,15.2h-7.8c-2.3,0-4.2-1.9-4.2-4.2c0-2.3,1.9-4.2,4.2-4.2h7.8
				c6.5,0,6.9-6.3,6.9-7l0-22.3h-34.5v55.8c0,0.1,0,3.8,2.3,6.1c1.3,1.3,3.2,2,5.8,2h29.3c1.5-0.1,6.7-0.7,6.7-6.7v-5
				c0-2.3,1.9-4.2,4.2-4.2c2.3,0,4.2,1.9,4.2,4.2v5c0,10.8-8.9,14.9-14.9,15.1H2215.8z"/>
		</g>
		<g>
			<path fill="#666666" d="M2276.9,550.7c-2.3,0-4.2-1.9-4.2-4.2v-67.7c0-2.3,1.9-4.2,4.2-4.2s4.2,1.9,4.2,4.2v67.7
				C2281.1,548.8,2279.2,550.7,2276.9,550.7z"/>
		</g>
		<g>
			<path fill="#666666" d="M2293.6,581.7h-9.3c-2.3,0-4.2-1.9-4.2-4.2c0-2.3,1.9-4.2,4.2-4.2h9.3c7.2,0,7.8-6.7,7.9-8.1l0-106.9
				c0-2.3,1.9-4.2,4.2-4.2s4.2,1.9,4.2,4.2v107.1C2309.6,572,2305.1,581.7,2293.6,581.7z"/>
		</g>
		<g>
			<path fill="#666666" d="M2401.7,470.6c-2.3,0-4.2-1.9-4.2-4.2V456c0-2.3,1.9-4.2,4.2-4.2s4.2,1.9,4.2,4.2v10.4
				C2405.9,468.8,2404,470.6,2401.7,470.6z"/>
		</g>
		<g>
			<path fill="#666666" d="M2454.5,470.6h-106.9c-2.3,0-4.2-1.9-4.2-4.2s1.9-4.2,4.2-4.2h106.9c2.3,0,4.2,1.9,4.2,4.2
				S2456.8,470.6,2454.5,470.6z"/>
		</g>
		<g>
			<path fill="#666666" d="M2462.2,493.8h-126.8c-2.3,0-4.2-1.9-4.2-4.2c0-2.3,1.9-4.2,4.2-4.2h126.8c2.3,0,4.2,1.9,4.2,4.2
				C2466.3,492,2464.5,493.8,2462.2,493.8z"/>
		</g>
		<g>
			<path fill="#666666" d="M2379.5,493.8c-1.5,0-2.9-0.8-3.6-2.1c-4.4-7.9-5.9-13.9-6-14.1c-0.5-2.2,0.8-4.5,3.1-5
				c2.2-0.5,4.5,0.8,5,3c0,0.1,1.3,5.2,5.1,12.1c1.1,2,0.4,4.6-1.6,5.7C2380.9,493.7,2380.2,493.8,2379.5,493.8z"/>
		</g>
		<g>
			<path fill="#666666" d="M2407.5,566.6c-1.9,0-3.6-1.3-4-3.1c0-0.1-1.1-4.3-4.5-10.1c-1.2-2-0.5-4.5,1.5-5.7
				c2-1.2,4.5-0.5,5.7,1.5c4.1,7,5.3,12,5.4,12.2c0.6,2.2-0.8,4.5-3,5.1C2408.2,566.6,2407.9,566.6,2407.5,566.6z"/>
		</g>
		<g>
			<path fill="#666666" d="M2422.2,493.8c-0.7,0-1.4-0.2-2.1-0.6c-2-1.2-2.7-3.7-1.5-5.7c3.5-5.9,5.1-12,5.1-12.1
				c0.6-2.2,2.9-3.5,5.1-3c2.2,0.6,3.5,2.9,2.9,5.1c-0.1,0.3-1.9,7.2-6,14.1C2425,493.1,2423.6,493.8,2422.2,493.8z"/>
		</g>
		<g>
			<path fill="#666666" d="M2434.7,541.3c-0.1,0-0.1,0-0.2,0h-76.4c-2.3,0-4.2-1.9-4.2-4.2V505c0-2.3,1.9-4.2,4.2-4.2h86
				c2.3,0,4.2,1.9,4.2,4.2v22.7c0,5.1-2.1,8.2-3.8,9.9C2440.8,541.1,2435.8,541.3,2434.7,541.3z M2362.3,533h72.3c0,0,0,0,0,0
				c0.8,0,2.9-0.3,4.1-1.5c0.8-0.8,1.2-2.1,1.2-3.9v-18.5h-77.7V533z"/>
		</g>
		<g>
			<path fill="#666666" d="M2358.1,525.2c-2.3,0-4.2-1.9-4.2-4.2c0-2.3,1.9-4.2,4.2-4.2l83.4,0c2.3,0,4.2,1.9,4.2,4.2
				s-1.9,4.2-4.2,4.2L2358.1,525.2z"/>
		</g>
		<g>
			<path fill="#666666" d="M2460.1,575.7c-1.9,0-3.7-1.4-4.1-3.3c0-0.1-2-9.2-7.8-18.9c-1.2-2-0.6-4.5,1.4-5.7
				c2-1.2,4.5-0.6,5.7,1.4c6.7,11,8.8,21.1,8.9,21.6c0.5,2.3-1,4.5-3.2,4.9C2460.7,575.7,2460.4,575.7,2460.1,575.7z"/>
		</g>
		<g>
			<path fill="#666666" d="M2340.5,575.7c-0.7,0-1.5-0.2-2.2-0.6c-2-1.2-2.6-3.8-1.4-5.7c5.9-9.7,7.8-18.8,7.8-18.9
				c0.5-2.3,2.7-3.7,4.9-3.2c2.2,0.5,3.7,2.7,3.2,4.9c-0.1,0.4-2.2,10.6-8.9,21.6C2343.3,575,2341.9,575.7,2340.5,575.7z"/>
		</g>
		<g>
			<path fill="#666666" d="M2425.2,581h-44.4c-13.1,0-17.8-10.7-17.8-17.9v-11.8c0-2.3,1.9-4.2,4.2-4.2s4.2,1.9,4.2,4.2v11.8
				c0,1.6,0.6,9.5,9.5,9.5h44.4c1.6,0,7-0.6,7-7v-5.2c0-2.3,1.9-4.2,4.2-4.2s4.2,1.9,4.2,4.2v5.2
				C2440.5,576.9,2431.4,581,2425.2,581z"/>
		</g>
	</g>
	<g>
		<g>
			<g>
				<path fill="#333333" d="M1569.1,450.9l-70.7,0c-2.7,0-4.9,2.2-4.9,4.9l0,4c0,2.7,2.2,4.9,4.9,4.9l53.2,0l0.6,0l0,0.6l0,97.4l0,0
					c0,2.4-1.9,4.3-4.3,4.3v0l-12.9,0c-2.7,0-4.9,2.2-4.9,4.9l0,4c0,2.7,2.2,4.9,4.9,4.9l17.3,0c7.6,0,13.8-6.2,13.8-13.9h0l0-101.8
					l0-0.6l0.6,0l2.5,0c2.7,0,4.9-2.2,4.9-4.9l0-4C1574,453.1,1571.8,450.9,1569.1,450.9z"/>
				<path fill="#333333" d="M1535.3,544.4c2.7,0,4.9-2.2,4.9-4.9l0-4l0-45.4l0-4c0-2.7-2.2-4.9-4.9-4.9l-4,0l-28.7,0l-4,0
					c-2.7,0-4.9,2.2-4.9,4.9l0,4l0,45.4l0,4c0,2.7,2.2,4.9,4.9,4.9l4,0l28.7,0L1535.3,544.4z M1526.3,495.5l0,34.4l0,0.6l-0.6,0
					l-17.7,0l-0.6,0l0-0.6l0-34.4l0-0.6l0.6,0l17.7,0l0.6,0L1526.3,495.5z"/>
				<path fill="#333333" d="M1480.2,450.9l-0.2,0l-3.8,0l-27.4,0l-4,0c-2.7,0-4.9,2.2-4.9,4.9l0,4l0,116.2c0,2.7,2.2,4.9,4.9,4.9
					l4,0c2.7,0,4.9-2.2,4.9-4.9l0-110.7l0-0.6l0.6,0l16.4,0l0.6,0l0,0.6l0,60.8c0,2.4-1.9,4.3-4.3,4.3l-0.3,0
					c-2.7,0-4.9,2.2-4.9,4.9l0,4c0,2.7,2.2,4.9,4.9,4.9l4.7,0c7.6,0,13.8-6.2,13.8-13.8l0-74.7
					C1485.2,453.1,1483,450.9,1480.2,450.9z"/>
			</g>
			<g>
				<path fill="#333333" d="M1784.6,567.3c-5.3-1.6-10.2-4.2-14.4-7.9l-0.4-0.3l0.3-0.4c2.7-4.1,5-8.6,6.8-13.3
					c3.8-9.9,5.2-19.6,5.7-26c0.2-2.2,0.3-10.8,0.3-10.9l0-32.7l0-4c0-2.7-2.2-4.9-4.9-4.9l-4,0l-20.9,0l-0.6,0l0-0.6l0-10.2
					c0-2.7-2.2-4.9-4.9-4.9l-4,0c-2.7,0-4.9,2.2-4.9,4.9l0,10.2l0,0.6l-0.6,0l-5.6,0c-2.7,0-4.9,2.2-4.9,4.9l0,4
					c0,2.7,2.2,4.9,4.9,4.9l5.6,0l0.6,0l0,0.6l0,27.2c0,0.1,0,7.9,0.3,10.9c0.5,6.4,1.9,16.1,5.7,26c1.8,4.8,4.1,9.3,6.8,13.3
					l0.3,0.4l-0.4,0.3c-4.2,3.7-9.1,6.3-14.4,7.9c-2.4,0.7-3.9,3.1-3.5,5.5l0.7,4c0.4,2.3,2.5,4.1,4.8,4.1c0.4,0,0.9-0.1,1.3-0.2
					c7.5-2.1,14.3-5.8,20.1-10.9l0.4-0.3l0.4,0.3c5.9,5.1,12.6,8.8,20.1,10.9c0.4,0.1,0.9,0.2,1.3,0.2c2.4,0,4.4-1.8,4.9-4.1l0.7-4
					C1788.6,570.4,1787.1,568,1784.6,567.3z M1769,481.2l0,27.2c0,0.4-0.1,8.5-0.2,10.1c-0.5,5.9-2,17.5-7.5,28l-0.5,1l-0.5-1
					c-5.5-10.5-7.1-22-7.5-28c-0.1-1.6-0.2-9.8-0.2-10.1l0-27.2l0-0.6l0.6,0l15.4,0l0.6,0L1769,481.2z"/>
				<path fill="#333333" d="M1860.1,502.9l-3.4,0l-0.6,0l0-0.6l0-30.4l0-3.2l0-0.9l0-3.2c0-7.6-6.2-13.8-13.8-13.8l-7.4,0l-38.4,0
					c-2.7,0-4.9,2.2-4.9,4.9l0,4c0,2.7,2.2,4.9,4.9,4.9l41.4,0c2.4,0,4.3,2,4.3,4.3l0,33.2l0,0.6l-0.6,0l-28.2,0
					c-2.4,0-4.3-2-4.3-4.4l0-18.8c0-2.7-2.2-4.9-4.9-4.9l-4,0c-2.7,0-4.9,2.2-4.9,4.9l0,23.2l0,0c0,7.6,6.2,13.8,13.8,13.8l0,0
					l38.8,0l2.5,0l0.6,0l0.1,0l0,18l0,0.6l-0.6,0l-53.6,0c-2.7,0-4.9,2.2-4.9,4.9l0,4c0,2.7,2.2,4.9,4.9,4.9l53.6,0l0.6,0l0,0.6
					l0,13c0,2.4-1.9,4.3-4.3,4.3l-12.8,0c-2.7,0-4.9,2.2-4.9,4.9l0,4c0,2.7,2.2,4.9,4.9,4.9l17.2,0c7.6,0,13.8-6.2,13.8-13.8l0-22.8
					l0-4l0-28.4l0-4C1865,505.1,1862.8,502.9,1860.1,502.9z"/>
			</g>
			<g>
				<path fill="#333333" d="M1939.1,567.3c-5.3-1.6-10.2-4.2-14.4-7.9l-0.4-0.3l0.3-0.4c2.7-4.1,5-8.6,6.8-13.3
					c3.8-9.9,5.2-19.6,5.7-26c0.2-2.2,0.3-10.8,0.3-10.9l0-32.7l0-4c0-2.7-2.2-4.9-4.9-4.9l-4,0l-20.9,0l-0.6,0l0-0.6l0-10.2
					c0-2.7-2.2-4.9-4.9-4.9l-4,0c-2.7,0-4.9,2.2-4.9,4.9l0,10.2l0,0.6l-0.6,0l-5.6,0c-2.7,0-4.9,2.2-4.9,4.9l0,4
					c0,2.7,2.2,4.9,4.9,4.9l5.6,0l0.6,0l0,0.6l0,27.2c0,0.1,0,7.9,0.3,10.9c0.5,6.4,1.9,16.1,5.7,26c1.8,4.8,4.1,9.3,6.8,13.3
					l0.3,0.4l-0.4,0.3c-4.2,3.7-9.1,6.3-14.4,7.9c-2.4,0.7-3.9,3.1-3.5,5.5l0.7,4c0.4,2.3,2.5,4.1,4.8,4.1c0.4,0,0.9-0.1,1.3-0.2
					c7.5-2.1,14.3-5.8,20.1-10.9l0.4-0.3l0.4,0.3c5.9,5.1,12.6,8.8,20.1,10.9c0.4,0.1,0.9,0.2,1.3,0.2c2.4,0,4.4-1.8,4.9-4.1l0.7-4
					C1943,570.3,1941.5,568,1939.1,567.3z M1923.5,481.2l0,27.2c0,0.4-0.1,8.5-0.2,10.1c-0.5,5.9-2,17.5-7.5,28l-0.5,1l-0.5-1
					c-5.5-10.5-7.1-22-7.5-28c-0.1-1.6-0.2-9.8-0.2-10.1l0-27.2l0-0.6l0.6,0l15.4,0l0.6,0L1923.5,481.2z"/>
				<path fill="#333333" d="M2014.5,502.9l-3.4,0l-0.6,0l0-0.6l0-30.4l0-3.2l0-0.9l0-3.2c0-7.6-6.2-13.8-13.8-13.8l-7.4,0l-38.4,0
					c-2.7,0-4.9,2.2-4.9,4.9l0,4c0,2.7,2.2,4.9,4.9,4.9l41.4,0c2.4,0,4.3,2,4.3,4.3l0,33.2l0,0.6l-0.6,0l-28.2,0
					c-2.4,0-4.3-2-4.3-4.4l0-18.8c0-2.7-2.2-4.9-4.9-4.9l-4,0c-2.7,0-4.9,2.2-4.9,4.9l0,23.2l0,0c0,7.6,6.2,13.8,13.8,13.8l0,0
					l38.8,0l2.5,0l0.6,0h0.1l0,18l0,0.6l-0.6,0l-53.6,0c-2.7,0-4.9,2.2-4.9,4.9l0,4c0,2.7,2.2,4.9,4.9,4.9l53.6,0l0.6,0l0,0.6l0,13
					c0,2.4-1.9,4.3-4.3,4.3l-12.8,0c-2.7,0-4.9,2.2-4.9,4.9l0,4c0,2.7,2.2,4.9,4.9,4.9l17.2,0c7.6,0,13.8-6.2,13.8-13.8l0-22.8l0-4
					l0-28.4l0-4C2019.5,505.1,2017.2,502.9,2014.5,502.9z"/>
			</g>
			<path fill="#333333" d="M1710.3,567.1l-51.8,0l-0.6,0l0-0.6l0-16.9l0-0.6l0.6,0l42.9,0c2.7,0,4.9-2.2,4.9-4.9l0-4
				c0-2.7-2.2-4.9-4.9-4.9l-42.9,0l-0.6,0l0-0.6l0-13.8l0-0.6l0.6,0l33.9,0l0,0c7.6,0,13.8-6.2,13.8-13.8l0,0l0-18.8l0-4l0-18.8l0,0
				c0-7.6-6.2-13.8-13.8-13.8l-82.5,0c-7.6,0-13.8,6.2-13.8,13.8l0,0l0,18.8l0,4l0,18.8l0,0.1c0,7.6,6.2,13.8,13.8,13.8l0,0l33.6,0
				l0.6,0l0,0.6l0,13.8l0,0.6l-0.6,0l-42.5,0c-2.7,0-4.9,2.2-4.9,4.9l0,4c0,2.7,2.2,4.9,4.9,4.9l42.5,0l0.6,0l0,0.6l0,16.9l0,0.6
				l-0.6,0l-51.8,0c-2.7,0-4.9,2.2-4.9,4.9l0,4c0,2.7,2.2,4.9,4.9,4.9l118.5,0c2.7,0,4.9-2.2,4.9-4.9l0-4
				C1715.2,569.3,1713,567.1,1710.3,567.1z M1692.4,469.1l0,9l0,0.6l-0.6,0l-33.4,0l-0.6,0l0-0.6l0-12.7l0-0.6l0.6,0l29.6,0
				C1690.5,464.7,1692.4,466.7,1692.4,469.1z M1657.9,505.8l0-12.8l0-0.6l0.6,0l33.4,0l0.6,0l0,0.6l0,9l0,0c0,2.4-1.9,4.3-4.3,4.3
				l0,0l-29.6,0l-0.6,0L1657.9,505.8z M1614.3,506.4c-2.4,0-4.3-1.9-4.3-4.3l0-9l0-0.6l0.6,0l33,0l0.6,0l0,0.6l0,12.8l0,0.6l-0.6,0
				L1614.3,506.4z M1644.1,478.7l-0.6,0l-33,0l-0.6,0l0-0.6l0-9c0-2.4,1.9-4.3,4.3-4.3l29.2,0l0.6,0l0,0.6l0,12.7L1644.1,478.7z"/>
		</g>
		<radialGradient id="SVGID_1_" cx="1205.5056" cy="515.8547" r="181.0328" gradientUnits="userSpaceOnUse">
			<stop  offset="0" style="stop-color:#FF6600"/>
			<stop  offset="0.2548" style="stop-color:#E2485F"/>
			<stop  offset="0.5169" style="stop-color:#5A2CFF"/>
			<stop  offset="0.7196" style="stop-color:#3181F5"/>
			<stop  offset="0.9117" style="stop-color:#0ECBEC"/>
			<stop  offset="1" style="stop-color:#00E8E8"/>
		</radialGradient>
		<path fill="url(#SVGID_1_)" d="M1292,580.5c0,12.1-9.8,22-22,22c-12.1,0-22-9.8-22-22c0-12.1,9.8-22,22-22
			C1282.2,558.5,1292,568.3,1292,580.5z M1140.9,558.5c-12.1,0-22,9.8-22,22c0,12.1,9.8,22,22,22s22-9.8,22-22
			C1162.9,568.3,1153.1,558.5,1140.9,558.5z M1140.9,429.3c-12.1,0-22,9.8-22,22s9.8,22,22,22s22-9.8,22-22
			S1153.1,429.3,1140.9,429.3z M1101.5,397.1c-8.1,0-14.8,6.6-14.8,14.8c0,8.1,6.6,14.8,14.8,14.8c8.1,0,14.8-6.6,14.8-14.8
			C1116.3,403.7,1109.7,397.1,1101.5,397.1z M1101.6,605c-8.1,0-14.8,6.6-14.8,14.8c0,8.1,6.6,14.8,14.8,14.8s14.8-6.6,14.8-14.8
			C1116.3,611.6,1109.7,605,1101.6,605z M1309.4,605c-8.1,0-14.8,6.6-14.8,14.8c0,8.1,6.6,14.8,14.8,14.8s14.8-6.6,14.8-14.8
			C1324.1,611.6,1317.5,605,1309.4,605z M1309.5,397.1c-8.1,0-14.8,6.6-14.8,14.8c0,8.1,6.6,14.8,14.8,14.8s14.8-6.6,14.8-14.8
			C1324.3,403.7,1317.7,397.1,1309.5,397.1z M1230.9,433.7c0,14-11.4,25.4-25.4,25.4c-14,0-25.4-11.4-25.4-25.4
			c0-7.2,3-13.6,7.7-18.2c0,0,0,0,0,0c1-1,5-5.5,7.1-7.9c2-2.4,2.9-4,3.7-5.4c0.8-1.5,0.8-3.3,0.8-3.3s0.1-2.1-1.2-4.1
			c-1.3-2-1.8-2.8-3.5-4.9c-1.7-2-4.3-5-5-5.6h0c-3.9-4-6.2-9.4-6.2-15.3c0-12.2,9.9-22,22-22c12.2,0,22,9.9,22,22
			c0,6-2.4,11.4-6.2,15.3h0c-0.6,0.7-3.2,3.6-5,5.6c-1.7,2-2.3,2.9-3.5,4.9c-1.3,2-1.2,4.1-1.2,4.1s0,1.8,0.8,3.3
			c0.8,1.5,1.7,3,3.7,5.4c2,2.4,6,6.9,7,7.9c0,0,0,0,0,0C1227.9,420.1,1230.9,426.5,1230.9,433.7z M1180.1,598
			c0-14,11.4-25.4,25.4-25.4c14,0,25.4,11.4,25.4,25.4c0,7.2-3,13.6-7.7,18.2c0,0,0,0,0,0c-1,1-5,5.5-7,7.9c-2,2.4-2.9,4-3.7,5.4
			c-0.8,1.5-0.8,3.3-0.8,3.3s-0.1,2.1,1.2,4.1c1.3,2,1.8,2.8,3.5,4.9c1.7,2,4.3,5,5,5.6h0c3.9,4,6.2,9.4,6.2,15.3
			c0,12.2-9.9,22-22,22c-12.2,0-22-9.9-22-22c0-6,2.4-11.4,6.2-15.3h0c0.6-0.7,3.2-3.6,5-5.6c1.7-2,2.3-2.9,3.5-4.9
			c1.3-2,1.2-4.1,1.2-4.1s0-1.8-0.8-3.3c-0.8-1.5-1.7-3-3.7-5.4c-2-2.4-6-6.9-7.1-7.9c0,0,0,0,0,0
			C1183.1,611.6,1180.1,605.2,1180.1,598z M1287.7,541.2c-14,0-25.4-11.4-25.4-25.4s11.4-25.4,25.4-25.4c7.2,0,13.6,3,18.2,7.7
			c0,0,0,0,0,0c1,1,5.5,5,7.9,7.1c2.4,2,4,2.9,5.4,3.7c1.5,0.8,3.3,0.8,3.3,0.8s2.1,0.1,4.1-1.2c2-1.3,2.8-1.8,4.9-3.5s5-4.3,5.6-5
			v0c4-3.9,9.4-6.2,15.3-6.2c12.2,0,22,9.9,22,22c0,12.2-9.9,22-22,22c-6,0-11.4-2.4-15.3-6.2v0c-0.7-0.6-3.6-3.2-5.6-5
			s-2.9-2.3-4.9-3.5c-2-1.3-4.1-1.2-4.1-1.2s-1.8,0-3.3,0.8c-1.5,0.8-3,1.7-5.4,3.7c-2.4,2-6.9,6-7.9,7c0,0,0,0,0,0
			C1301.3,538.3,1294.8,541.2,1287.7,541.2z M1123.3,490.5c14,0,25.4,11.4,25.4,25.4s-11.4,25.4-25.4,25.4c-7.2,0-13.6-3-18.2-7.7
			c0,0,0,0,0,0c-1-1-5.5-5-7.9-7c-2.4-2-4-2.9-5.4-3.7c-1.5-0.8-3.3-0.8-3.3-0.8s-2.1-0.1-4.1,1.2c-2,1.3-2.8,1.8-4.9,3.5
			s-5,4.3-5.6,5v0c-4,3.9-9.4,6.2-15.3,6.2c-12.2,0-22-9.9-22-22c0-12.2,9.9-22,22-22c6,0,11.4,2.4,15.3,6.2v0
			c0.7,0.6,3.6,3.2,5.6,5s2.9,2.3,4.9,3.5c2,1.3,4.1,1.2,4.1,1.2s1.8,0,3.3-0.8c1.5-0.8,3-1.7,5.4-3.7c2.4-2,6.9-6,7.9-7.1
			c0,0,0,0,0,0C1109.7,493.4,1116.2,490.5,1123.3,490.5z M1240.3,522.1L1240.3,522.1c2-11.5,5.3-23.7,7.5-30.1
			c2.2-6.5,5.9-9.8,5.9-9.8s2.9-3.1,7.1-4.8c3.9-1.7,6.4-2.7,13.7-4.6l0,0c10-2,17.6-10.9,17.6-21.5c0-12.1-9.8-22-22-22
			c-10.8,0-19.7,7.8-21.6,18c-1.8,6.9-2.8,9.5-4.5,13.3c-1.8,4.2-4.8,7.1-4.8,7.1s-3.3,3.6-9.8,5.9c-6.3,2.2-18.6,5.5-30.1,7.5l0,0
			c-16.5,2.9-29.1,17.4-29.1,34.8c0,19.5,15.8,35.3,35.3,35.3C1222.9,551.2,1237.3,538.6,1240.3,522.1z"/>
	</g>
</g>
</svg>
