<?xml version="1.0" encoding="UTF-8" standalone="no"?>
<!-- Generator: Adobe Illustrator 23.0.1, SVG Export Plug-In . SVG Version: 6.00 Build 0)  -->

<svg
   xmlns:dc="http://purl.org/dc/elements/1.1/"
   xmlns:cc="http://creativecommons.org/ns#"
   xmlns:rdf="http://www.w3.org/1999/02/22-rdf-syntax-ns#"
   xmlns:svg="http://www.w3.org/2000/svg"
   xmlns="http://www.w3.org/2000/svg"
   xmlns:sodipodi="http://sodipodi.sourceforge.net/DTD/sodipodi-0.dtd"
   xmlns:inkscape="http://www.inkscape.org/namespaces/inkscape"
   version="1.1"
   id="图层_1"
   x="0px"
   y="0px"
   viewBox="0 0 298.29999 101.72945"
   xml:space="preserve"
   sodipodi:docname="baidu.svg"
   width="298.29999"
   height="101.72945"
   inkscape:version="0.92.4 (5da689c313, 2019-01-14)"><metadata
   id="metadata51"><rdf:RDF><cc:Work
       rdf:about=""><dc:format>image/svg+xml</dc:format><dc:type
         rdf:resource="http://purl.org/dc/dcmitype/StillImage" /><dc:title></dc:title></cc:Work></rdf:RDF></metadata><defs
   id="defs49" /><sodipodi:namedview
   pagecolor="#ffffff"
   bordercolor="#666666"
   borderopacity="1"
   objecttolerance="10"
   gridtolerance="10"
   guidetolerance="10"
   inkscape:pageopacity="0"
   inkscape:pageshadow="2"
   inkscape:window-width="3840"
   inkscape:window-height="2066"
   id="namedview47"
   showgrid="false"
   fit-margin-top="5"
   fit-margin-left="5"
   fit-margin-right="5"
   fit-margin-bottom="5"
   inkscape:zoom="2.9601757"
   inkscape:cx="134.81704"
   inkscape:cy="-127.94708"
   inkscape:window-x="-11"
   inkscape:window-y="-11"
   inkscape:window-maximized="1"
   inkscape:current-layer="图层_1" />
<style
   type="text/css"
   id="style2">
	.st0{fill:#2932E1;}
	.st1{fill:#FFFFFF;}
	.st2{fill:#E10602;}
	.st3{fill:#EEEEEF;}
	.st4{fill:none;stroke:#E50012;stroke-width:0.5;stroke-dasharray:1,3;}
	.st5{fill:#E50012;}
	.st6{font-family:'FZHTJW--GB1-0';}
	.st7{font-size:13.4539px;glyph-orientation-vertical:0;writing-mode:tb;}
	.st8{letter-spacing:1;}
	.st9{fill:none;}
	.st10{fill:#040000;}
	.st11{font-family:'FZXDXJW--GB1-0';}
	.st12{font-size:9.2495px;}
</style>
<g
   id="g20"
   transform="translate(-88.96,-178.21)">
	<path
   class="st0"
   d="m 267.17,247.49 c 0,0 -11.48,-8.79 -18.2,-18.33 -9.11,-14.06 -22.05,-8.34 -26.37,-1.19 -4.3,7.12 -11.02,11.69 -12,12.87 -0.96,1.17 -13.89,8.08 -11.01,20.7 2.86,12.62 12.95,12.36 12.95,12.36 0,0 7.46,0.74 16.04,-1.12 8.66,-1.91 16.08,0.42 16.08,0.42 0,0 20.14,6.69 25.67,-6.17 5.5,-12.83 -3.16,-19.54 -3.16,-19.54 z m 11.28,-25.01 c 0,-2.84 -2.37,-11.42 -11.28,-11.42 -8.85,0 -10.05,8.09 -10.05,13.82 0,5.48 0.45,13.09 11.51,12.88 11.02,-0.23 9.82,-12.41 9.82,-15.28 z m -29.48,-10 c 7.44,0.98 12.25,-6.89 13.17,-12.85 0.95,-5.95 -3.82,-12.84 -9.1,-14.01 -5.28,-1.23 -11.85,7.14 -12.48,12.59 -0.7,6.66 1,13.35 8.41,14.27 z M 225,211.56 c 5.56,0 10.07,-6.34 10.07,-14.17 0,-7.85 -4.51,-14.18 -10.07,-14.18 -5.55,0 -10.07,6.32 -10.07,14.18 0.01,7.82 4.53,14.17 10.07,14.17 z m -18.69,20.01 c 10.09,-2.17 8.71,-14.06 8.39,-16.69 -0.48,-4.03 -5.26,-11.03 -11.74,-10.45 -8.16,0.67 -9.37,12.34 -9.37,12.34 -1.08,5.41 2.67,16.93 12.72,14.8 z"
   id="path4"
   inkscape:connector-curvature="0"
   style="fill:#2932e1" />
	<path
   class="st1"
   d="m 226.7,261.52 h -5.28 c 0,0 -3.67,-0.17 -4.78,-4.39 -0.57,-1.86 0.08,-3.99 0.35,-4.84 0.31,-0.86 1.51,-2.77 4.08,-3.54 h 5.63 z m 0.11,-26.27 v 8.46 h -6.98 c 0,0 -6.98,0.53 -9.42,8.39 -0.87,5.22 0.75,8.29 1.02,8.98 0.33,0.64 2.54,4.45 8.21,5.55 h 13.08 v -31.31 z"
   id="path6"
   inkscape:connector-curvature="0"
   style="fill:#ffffff" />
	<path
   class="st1"
   d="m 235.92,244.44 v 16.5 c 0,0 0.28,4.14 6.12,5.61 h 15.08 v -22.11 h -6.5 v 16.64 h -6.21 c 0,0 -2.01,-0.31 -2.37,-1.88 v -14.85 z"
   id="path8"
   inkscape:connector-curvature="0"
   style="fill:#ffffff" />
	<path
   class="st2"
   d="m 319.85,244.07 v 7.61 h -27.81 v -7.61 z m 0.05,21.32 c 0,0 -0.49,1.16 -1.18,1.16 h -26.67 v -8.13 h 27.85 z m 8.98,-31.74 v -6.96 h -46.26 l -0.07,7.04 h 19.9 l -1.84,4.24 h -16.94 v 34.89 h 40.19 c 4.19,0 3.84,-4.17 3.84,-4.17 v -30.72 h -16.94 l 1.46,-4.32 z"
   id="path10"
   inkscape:connector-curvature="0"
   style="fill:#e10602" />
	<path
   class="st2"
   d="m 368.16,258.48 -6.64,3.48 -6.12,-3.48 z m -24.25,0.13 11.68,6.69 c -0.95,0.97 -4.92,2.24 -4.92,2.24 h -7.82 v 5.16 h 10.6 c 3.1,-0.63 8.97,-3.55 8.97,-3.55 2.41,2.17 7.05,3.08 7.05,3.08 h 12 v -5.14 h -9.08 c -2.42,-0.34 -4.61,-1.72 -4.61,-1.72 l 13.68,-7.8 v -4.2 h -37.58 v 5.24 z m 25.64,-13.41 c 0,0 -0.65,1.16 -1.49,1.16 h -13.64 v -4.83 h 15.13 z m 7.32,-8.8 v -2.68 h -7.32 v 2.68 h -15.02 v -2.57 h -6.98 v 2.57 h -4.69 l 0.1,5.23 h 4.59 v 9.8 h 25.32 c 3.54,0 4,-3.68 4,-3.68 v -6.12 h 5.39 v -5.23 z m 4.9,-9.53 H 363.6 v -3.5 h -8.47 v 3.32 h -20.88 v 46.11 h 7.52 v -40.14 h 40 z"
   id="path12"
   inkscape:connector-curvature="0"
   style="fill:#e10602" />
	<path
   class="st2"
   d="m 179.63,272.63 h 10.1 v -34.59 h -10.1 z m 0,-47.23 v 8.79 h 10.1 v -8.79 z"
   id="path14"
   inkscape:connector-curvature="0"
   style="fill:#e10602" />
	<path
   class="st2"
   d="m 165.06,265.9 h -13.75 c -1.89,-0.74 -2.49,-1.97 -2.61,-2.28 -0.14,-0.25 -0.54,-1.42 -0.05,-2.46 1.1,-2.16 2.93,-2.67 2.93,-2.67 h 13.48 z m -1.85,-27.83 -21.55,-0.06 v 7.27 h 18.9 c 0,0 4.49,1.08 4.49,3.92 v 2.56 h -17.11 c 0,0 -6.74,0.63 -8.89,8.54 -0.36,3.75 0.15,5.6 0.38,6.25 0.26,0.7 2.22,5.11 8.1,6.19 h 27.24 v -24.78 c 0.01,0 -1.32,-8.48 -11.56,-9.89 z"
   id="path16"
   inkscape:connector-curvature="0"
   style="fill:#e10602" />
	<path
   class="st2"
   d="m 124.69,241.95 c 0,0 -1.13,2.01 -4.12,2.49 h -16.04 v -9.97 h 16.01 c 0,0 3.49,-0.16 4.62,2.61 0,-0.01 0.69,2.87 -0.47,4.87 z m -3.53,22.28 v 0 h -16.64 v -10.36 h 16.57 l 0.55,0.11 c 0,0 3.16,0.57 4.28,3.35 0,0 0.68,2.68 -0.77,4.62 0.01,-0.01 -1.03,1.81 -3.99,2.28 z m 15.66,-3.75 c 0.35,-8.4 -7.3,-11.33 -7.3,-11.33 6.45,-3.34 5.65,-11.76 5.65,-11.76 -0.7,-12.86 -16.63,-12.3 -16.63,-12.3 H 93.96 v 48.04 h 27.78 c 16.3,-0.03 15.08,-12.65 15.08,-12.65 z"
   id="path18"
   inkscape:connector-curvature="0"
   style="fill:#e10602" />
</g>





</svg>