<svg xmlns="http://www.w3.org/2000/svg" xmlns:xlink="http://www.w3.org/1999/xlink" viewBox="0 0 1851.14 357.98"><defs><style>.cls-1{fill:url(#linear-gradient);}.cls-2{fill:url(#linear-gradient-2);}.cls-3{fill:url(#未命名的渐变_1153);}.cls-4{fill:url(#linear-gradient-3);}.cls-5{fill:url(#linear-gradient-4);}.cls-6{fill:url(#linear-gradient-5);}.cls-7{fill:#317aff;}.cls-8{fill:url(#linear-gradient-6);}.cls-9{fill:url(#linear-gradient-7);}</style><linearGradient id="linear-gradient" x1="1.17" y1="75.83" x2="303.21" y2="75.83" gradientUnits="userSpaceOnUse"><stop offset="0.3" stop-color="#3559da"/><stop offset="0.9" stop-color="#2480ff"/></linearGradient><linearGradient id="linear-gradient-2" x1="78.25" y1="0.88" x2="78.25" y2="357.98" gradientUnits="userSpaceOnUse"><stop offset="0.1" stop-color="#2480ff"/><stop offset="0.9" stop-color="#3559da"/></linearGradient><linearGradient id="未命名的渐变_1153" x1="233.66" y1="249.26" x2="178.7" y2="344.44" gradientUnits="userSpaceOnUse"><stop offset="0" stop-color="#d0281b"/><stop offset="0.21" stop-color="#e33b31"/><stop offset="0.46" stop-color="#f24b44"/><stop offset="0.72" stop-color="#fc554f"/><stop offset="1" stop-color="#ff5853"/></linearGradient><linearGradient id="linear-gradient-3" x1="320.93" y1="77.95" x2="204.61" y2="279.42" gradientUnits="userSpaceOnUse"><stop offset="0.47" stop-color="#2480ff"/><stop offset="0.99" stop-color="#3559da"/></linearGradient><linearGradient id="linear-gradient-4" x1="302.63" y1="259.26" x2="271.5" y2="241.29" gradientUnits="userSpaceOnUse"><stop offset="0" stop-color="#2d6df1"/><stop offset="1" stop-color="#3559da"/></linearGradient><linearGradient id="linear-gradient-5" x1="106.03" y1="138.89" x2="274.51" y2="236.16" gradientUnits="userSpaceOnUse"><stop offset="0.2" stop-color="#2480ff"/><stop offset="0.76" stop-color="#3559da"/><stop offset="1" stop-color="#3559da"/></linearGradient><linearGradient id="linear-gradient-6" x1="1175.83" y1="230.57" x2="1255.27" y2="230.57" gradientUnits="userSpaceOnUse"><stop offset="0.21" stop-color="#355bdc"/><stop offset="0.62" stop-color="#3559da"/></linearGradient><linearGradient id="linear-gradient-7" x1="1255.27" y1="128.28" x2="1334.71" y2="128.28" gradientUnits="userSpaceOnUse"><stop offset="0" stop-color="#ff5853"/><stop offset="0.04" stop-color="#ff5853"/><stop offset="1" stop-color="#ff5853"/></linearGradient></defs><title>xlab2</title><g id="Layer_2" data-name="Layer 2"><g id="图层_1" data-name="图层 1"><path class="cls-1" d="M303.21,39.18A287.29,287.29,0,0,0,219.62,6.9V6.83A294.68,294.68,0,0,0,158.39,0C103.19-.36,49.89,15.42,5.61,41.63,1.82,60.13,1.32,78.38,1.19,98c-.13,19.45.42,35.26,3.91,53.68C49.72,91.42,117.63,47.34,209.42,47.94c16.11.1,32.6,2.71,47.1,5.32.24.07.62.14.62.14,1.15.23,4.76,1.18,5.91,1.43a25.15,25.15,0,0,0,6.11.55c13.83,0,24.28-6,34-16.2Z"/><path class="cls-2" d="M143.88,317.1c-1.66-1.6-5-5.23-6.66-6.87h0C94,264.53,67.82,208.18,67.14,140.73,66.73,99.34,77.45,60.34,91.41,32c6.88-13.14,20.53-25.93,36.8-29.72-.1,0,6.3-1.4,6.2-1.39-1.54.15-11.35,1-11.57,1-3.67.43-9.6,1.14-16.14,2.25,0,0,0,0,0,0C70.84,10.21,35.59,23.76,5.4,41.63,1.61,60.13.14,79.13,0,98.73c-.54,79.72,33.23,152.36,84.47,205.6h0c20.56,21.36,40.5,36,67.36,51.21,0,0,4.48,2.46,4.5,2.44a55,55,0,0,0-.11-9.4C155,335.48,151.38,327.33,143.88,317.1Z"/><path class="cls-3" d="M259.5,264.29c-10.21-6.73-20.6-8.71-31.74-8.38-33.06,1-58.3,28-57.31,61.43.28,9.54,3.8,19.21,8.46,27.21C211.63,322.38,237.7,296.87,259.5,264.29Z"/><path class="cls-4" d="M297.19,184.91c7.4-26.62,9.44-38.19,11.75-64.36.31-3.43.35-7.32.59-11.31.55-9.09-.26-27.94-1.26-38.6a54.21,54.21,0,0,0-53,56.56c-3.92,37.87-15.38,71.66-34.12,102.47-1.13,1.86-2.55,4.08-3.71,5.92l-.08.12c-2.36,3.71-12,17.31-20.06,26.91-.34.41-3.56,4-4.64,5.14l-2.87,3.13c9.35-7.62,20.32-14.36,37.93-15a55.55,55.55,0,0,1,31.74,8.38s5.51-8.48,5.8-8.94c1.29-2.08,4.38-7.26,4.45-7.38,1.21-2.07,10-18.58,11.11-20.94.06-.11.11-.22.16-.33,1.17-2.44,2.3-4.91,3.39-7.39h0a289.54,289.54,0,0,0,12.77-34.4"/><path class="cls-5" d="M284.7,218.66c-1.09,2.48-2.23,5-3.39,7.39l-.16.33c-1.13,2.36-5.73,11.4-12.08,22.64-.07.12-3.69,6-5,8.07-.29.47-3.07,4.79-3.07,4.79s-.75,1.33-1.52,2.41L289,282.94c4.92-8.76,8.26-18.37,8.06-30.54a57.68,57.68,0,0,0-11.85-34.78c-.22.51-.24.53-.46,1Z"/><path class="cls-6" d="M120.7,113.48a85.08,85.08,0,0,0-1.48,17.58c.53,27.15,14.6,51.05,35,66.19l-.17-.08.32.2.24.18,62.36,39.26a51.62,51.62,0,0,0,24.32,5.71,53.11,53.11,0,0,0,43.59-24.27l.32-.61Z"/><path class="cls-7" d="M1211.27,84.4a20.24,20.24,0,0,0-14.09-7.26h-21.35l123.33,197.2a20.2,20.2,0,0,0,14.18,7.38h21.37Z"/><path class="cls-8" d="M1175.83,281.7h21.36a20.18,20.18,0,0,0,14.18-7.38l43.9-70.18-15.46-24.71Z"/><path class="cls-9" d="M1334.71,77.13h-21.36a20.2,20.2,0,0,0-14.08,7.26l-44,70.33,15.45,24.71Z"/><path class="cls-7" d="M750.87,103.27V77.13h26.29v26.14Z"/><path class="cls-7" d="M750.87,281.36V128.1h26.29V281.36Z"/><path class="cls-7" d="M1334.71,188.36v-18h90v18Z"/><path class="cls-7" d="M1549.44,262.88H1475V77.13h-26.28V269.2a12.36,12.36,0,0,0,12.62,12.08h88.13Z"/><line class="cls-7" x1="1461.32" y1="281.28" x2="1461.31" y2="281.28"/><line class="cls-7" x1="1448.69" y1="269.2" x2="1448.69" y2="269.19"/><path class="cls-7" d="M1778.62,128.18H1746V59.43h-26.28V269.08a12.36,12.36,0,0,0,12.63,12.08h46.28q73.41,0,72.51-75.52Q1850.22,129.16,1778.62,128.18Zm-6.34,135.55H1746V146.57h26.29q51.66,0,51.66,60Q1823.94,263.75,1772.28,263.73Z"/><path class="cls-7" d="M580.59,224.31q-.92-39.69-44.41-49.38,36.24-10.65,35.35-48.42.88-49.38-61.64-49.38H424.7V269.37A12.35,12.35,0,0,0,437,281.44h74.7Q582.41,282.39,580.59,224.31ZM451,94.56h50.76q44.4-1,43.5,34.86,0,36.81-42.6,36.79H451ZM508.08,265H451v-79.4h52.57q49.83,0,49.85,40.66Q554.29,266,508.08,265Z"/><path class="cls-7" d="M1080,269.08V128h-26.28V264.68h-32.63q-40.79,1-39-38.73V128H955.82V228.86q-.92,53.26,55.29,52.28h56.6A12.33,12.33,0,0,0,1080,269.08Z"/><path class="cls-7" d="M905.52,60.58v67.6H872.89q-70.7,1-71.6,77.46,0,75.53,72.51,75.52h45.38a12.37,12.37,0,0,0,12.63-12.08V60.58Zm0,203.15H880.14q-52.56,0-51.66-57.12,0-60,51.66-60h25.38Z"/><path class="cls-7" d="M727,180.75q0-52.29-56.2-52.29-51.66-.95-66.16,48.42h23.57q10.88-31,42.59-30,36.24-.95,35.35,39.7H670.76q-64.37,0-65.25,50.35.88,43.57,58.91,44.54h49.91A12.37,12.37,0,0,0,727,269.37M706.11,264H665.33q-39.9,0-39-29-.9-30,42.6-30h37.16Z"/><path class="cls-7" d="M1639.56,128.47q-51.66-1-66.16,48.41H1597q10.88-31,42.6-30,36.24-1,35.35,39.7h-35.35q-64.36,0-65.26,50.35.9,43.56,58.91,44.54h49.91a12.36,12.36,0,0,0,12.63-12.09V180.76Q1695.75,128.47,1639.56,128.47ZM1674.91,264h-40.79q-39.88,0-39-29-.92-30,42.6-30h37.16Z"/></g></g></svg>