<?xml version="1.0" encoding="UTF-8" standalone="no"?>
<!-- Generator: Adobe Illustrator 23.0.1, SVG Export Plug-In . SVG Version: 6.00 Build 0)  -->

<svg
   xmlns:dc="http://purl.org/dc/elements/1.1/"
   xmlns:cc="http://creativecommons.org/ns#"
   xmlns:rdf="http://www.w3.org/1999/02/22-rdf-syntax-ns#"
   xmlns:svg="http://www.w3.org/2000/svg"
   xmlns="http://www.w3.org/2000/svg"
   xmlns:sodipodi="http://sodipodi.sourceforge.net/DTD/sodipodi-0.dtd"
   xmlns:inkscape="http://www.inkscape.org/namespaces/inkscape"
   version="1.1"
   id="图层_1"
   x="0px"
   y="0px"
   viewBox="0 0 340.98998 111.2"
   xml:space="preserve"
   sodipodi:docname="qtum.svg"
   width="340.98999"
   height="111.2"
   inkscape:version="0.92.4 (5da689c313, 2019-01-14)"><metadata
   id="metadata26"><rdf:RDF><cc:Work
       rdf:about=""><dc:format>image/svg+xml</dc:format><dc:type
         rdf:resource="http://purl.org/dc/dcmitype/StillImage" /><dc:title></dc:title></cc:Work></rdf:RDF></metadata><defs
   id="defs24" /><sodipodi:namedview
   pagecolor="#ffffff"
   bordercolor="#666666"
   borderopacity="1"
   objecttolerance="10"
   gridtolerance="10"
   guidetolerance="10"
   inkscape:pageopacity="0"
   inkscape:pageshadow="2"
   inkscape:window-width="3840"
   inkscape:window-height="2066"
   id="namedview22"
   showgrid="false"
   fit-margin-top="10"
   fit-margin-left="10"
   fit-margin-bottom="10"
   fit-margin-right="10"
   inkscape:zoom="2.6919413"
   inkscape:cx="195.76003"
   inkscape:cy="-71.07764"
   inkscape:window-x="-11"
   inkscape:window-y="-11"
   inkscape:window-maximized="1"
   inkscape:current-layer="图层_1" />
<style
   type="text/css"
   id="style2">
	.st0{fill:#339CD1;}
</style>
<g
   id="XMLID_2_"
   transform="translate(-234.84,-230.77)">
	<g
   id="XMLID_14_">
		<path
   id="XMLID_15_"
   class="st0"
   d="m 342.02,318.79 c -1.28,0 -2.44,0.48 -3.36,1.24 l -9.33,-7.99 7.16,-22.04 c 0.08,0.01 0.16,0.02 0.24,0.02 2.01,0 3.64,-1.63 3.64,-3.64 0,-2.01 -1.63,-3.64 -3.64,-3.64 -0.08,0 -0.16,0.02 -0.24,0.02 l -6.25,-19.25 c 1.02,-0.64 1.71,-1.77 1.71,-3.07 0,-2.01 -1.63,-3.64 -3.64,-3.64 -0.89,0 -1.69,0.33 -2.33,0.86 l -16.49,-11.91 c 0.17,-0.42 0.26,-0.87 0.26,-1.34 0,-2.01 -1.63,-3.64 -3.64,-3.64 -1.7,0 -3.12,1.17 -3.52,2.75 h -19.97 c -0.4,-1.58 -1.81,-2.75 -3.52,-2.75 -2.01,0 -3.64,1.63 -3.64,3.64 0,0.48 0.1,0.93 0.26,1.34 l -16.49,11.91 c -0.63,-0.53 -1.44,-0.86 -2.33,-0.86 -2.01,0 -3.64,1.63 -3.64,3.64 0,1.3 0.68,2.43 1.71,3.07 l -6.22,19.16 c -0.09,-0.01 -0.18,-0.03 -0.27,-0.03 -2.01,0 -3.64,1.63 -3.64,3.64 0,2.01 1.63,3.64 3.64,3.64 0.07,0 0.14,-0.02 0.21,-0.02 l 6.28,19.34 c -1.02,0.64 -1.71,1.77 -1.71,3.07 0,2.01 1.63,3.64 3.64,3.64 0.87,0 1.66,-0.32 2.28,-0.83 L 275.72,327 c -0.16,0.41 -0.26,0.86 -0.26,1.33 0,2.01 1.63,3.64 3.64,3.64 1.7,0 3.12,-1.17 3.52,-2.75 h 19.97 c 0.4,1.58 1.81,2.75 3.52,2.75 2.01,0 3.64,-1.63 3.64,-3.64 0,-0.47 -0.1,-0.92 -0.26,-1.33 l 18.76,-13.56 9.24,7.92 c -0.48,0.79 -0.76,1.71 -0.76,2.7 0,2.92 2.36,5.28 5.28,5.28 2.92,0 5.28,-2.36 5.28,-5.28 0.01,-2.9 -2.36,-5.27 -5.27,-5.27 z m -13.12,-53.66 5.91,18.18 c -0.78,0.49 -1.35,1.27 -1.59,2.19 h -2.17 -0.86 c -0.28,-1.26 -1.22,-2.26 -2.43,-2.65 z m -1.7,-1.23 -1.21,18.82 c -0.09,0.02 -0.17,0.04 -0.25,0.06 l -7.52,-14.2 c 0.73,-0.67 1.2,-1.62 1.2,-2.68 0,-0.21 -0.03,-0.4 -0.06,-0.6 l 0.98,-0.42 5.1,-2.21 c 0.44,0.57 1.05,1 1.76,1.23 z m -20.39,18.92 c -0.23,-0.04 -0.46,-0.07 -0.7,-0.07 -0.34,0 -0.67,0.06 -0.99,0.15 L 295.1,265.54 c 0.37,-0.35 0.67,-0.76 0.86,-1.23 l 16.22,2.01 c 0.11,0.95 0.59,1.78 1.29,2.36 z m 8.28,-13.36 c 0.22,0.04 0.45,0.07 0.69,0.07 0.3,0 0.59,-0.05 0.87,-0.12 l 7.52,14.22 c -0.53,0.49 -0.92,1.14 -1.08,1.87 h -6.54 -6.92 c -0.18,-0.73 -0.59,-1.36 -1.14,-1.84 z m -11.51,14.32 c -0.48,0.46 -0.82,1.05 -0.98,1.72 h -19.97 c -0.17,-0.66 -0.51,-1.26 -0.99,-1.72 l 10.03,-17.38 c 0.3,0.08 0.61,0.14 0.94,0.14 0.33,0 0.64,-0.06 0.94,-0.14 z m -23.49,-0.88 c -0.31,-0.09 -0.64,-0.15 -0.98,-0.15 -0.24,0 -0.47,0.03 -0.7,0.07 l -6.66,-14.13 c 0.71,-0.58 1.18,-1.41 1.3,-2.37 l 16.19,-2.09 c 0.19,0.49 0.48,0.92 0.85,1.28 z m -3.28,0.69 c -0.59,0.49 -1.02,1.15 -1.22,1.91 h -6.44 -6.92 c -0.18,-0.71 -0.57,-1.34 -1.1,-1.81 l 7.47,-14.27 c 0.27,0.07 0.55,0.11 0.85,0.11 0.24,0 0.47,-0.03 0.7,-0.07 z m -14.58,3.68 h 6.92 6.45 c 0.19,0.76 0.63,1.43 1.22,1.91 l -6.67,14.15 c -0.22,-0.04 -0.45,-0.07 -0.69,-0.07 -0.3,0 -0.58,0.04 -0.85,0.11 l -7.47,-14.28 c 0.53,-0.48 0.91,-1.1 1.09,-1.82 z m 16.18,2.68 c 0.23,0.04 0.46,0.07 0.7,0.07 0.35,0 0.67,-0.06 0.99,-0.15 l 9.98,17.29 c -0.37,0.36 -0.66,0.8 -0.85,1.29 l -16.18,-2.01 c -0.12,-0.95 -0.6,-1.78 -1.3,-2.36 z m 3.23,-0.96 c 0.48,-0.46 0.82,-1.05 0.98,-1.72 h 19.97 c 0.17,0.66 0.51,1.26 0.98,1.72 l -9.98,17.3 c -0.32,-0.09 -0.64,-0.15 -0.99,-0.15 -0.35,0 -0.67,0.06 -0.99,0.15 z m 23.49,0.88 c 0.32,0.09 0.64,0.15 0.99,0.15 0.24,0 0.47,-0.03 0.7,-0.07 l 6.67,14.15 c -0.7,0.58 -1.17,1.4 -1.29,2.35 l -16.2,2.01 c -0.19,-0.49 -0.48,-0.93 -0.85,-1.29 z m 3.28,-0.69 c 0.59,-0.49 1.02,-1.15 1.22,-1.91 h 6.04 7.48 c 0.19,0.68 0.57,1.28 1.09,1.74 l -7.6,14.37 c -0.28,-0.07 -0.56,-0.11 -0.86,-0.11 -0.24,0 -0.47,0.03 -0.7,0.07 z m 0.03,-41.98 16.49,11.91 c -0.17,0.42 -0.26,0.87 -0.26,1.34 0,0.2 0.03,0.39 0.06,0.58 l -6.09,2.64 c -0.67,-0.85 -1.69,-1.41 -2.86,-1.41 -0.22,0 -0.42,0.03 -0.63,0.06 l -6.42,-14.24 -0.37,-0.82 c 0.03,-0.02 0.06,-0.04 0.08,-0.06 z m -3.68,0.59 c 0.42,0.17 0.87,0.27 1.35,0.27 0.22,0 0.43,-0.03 0.64,-0.06 l 0.97,2.16 5.81,12.89 c -0.49,0.39 -0.89,0.9 -1.13,1.49 l -16.21,-2.09 c -0.09,-0.69 -0.36,-1.31 -0.77,-1.82 z m -22.13,-2.48 h 19.97 c 0.13,0.53 0.38,1 0.72,1.41 l -9.43,12.79 c -0.4,-0.15 -0.82,-0.24 -1.27,-0.24 -0.48,0 -0.93,0.1 -1.35,0.27 l -9.36,-12.8 c 0.33,-0.42 0.58,-0.9 0.72,-1.43 z m -3.52,2.75 c 0.48,0 0.93,-0.1 1.35,-0.27 l 9.33,12.84 c -0.41,0.51 -0.68,1.13 -0.77,1.81 l -16.19,2.12 c -0.24,-0.6 -0.63,-1.11 -1.13,-1.5 L 278.47,248 c 0.21,0.03 0.42,0.06 0.64,0.06 z m -2.32,-0.86 c 0.03,0.02 0.05,0.04 0.08,0.06 l -6.77,15.06 c -0.21,-0.04 -0.42,-0.06 -0.63,-0.06 -1.17,0 -2.2,0.56 -2.87,1.42 l -6.09,-2.64 c 0.03,-0.19 0.06,-0.39 0.06,-0.59 0,-0.48 -0.1,-0.93 -0.26,-1.34 z m -17,15.46 6.09,2.64 c -0.03,0.19 -0.06,0.39 -0.06,0.59 0,1.08 0.48,2.03 1.22,2.7 l -7.47,14.27 c -0.07,-0.02 -0.14,-0.03 -0.21,-0.04 l -1.31,-18.92 c 0.7,-0.24 1.3,-0.67 1.74,-1.24 z m -3.44,45.04 -5.95,-18.33 c 0.76,-0.47 1.33,-1.22 1.58,-2.1 h 2.26 0.96 c 0.3,1.21 1.21,2.17 2.39,2.55 z m -1.15,-22.2 h -0.96 -2.2 c -0.21,-0.95 -0.79,-1.76 -1.59,-2.27 l 5.9,-18.16 1.24,17.88 c -1.17,0.38 -2.08,1.34 -2.39,2.55 z m 2.85,23.38 1.31,-18.92 c 0.07,-0.01 0.14,-0.03 0.2,-0.04 l 6.97,13.32 0.5,0.96 c -0.74,0.67 -1.22,1.62 -1.22,2.7 0,0.19 0.03,0.38 0.06,0.57 l -6.11,2.62 c -0.43,-0.56 -1.02,-0.98 -1.71,-1.21 z m 18.73,16.7 -16.5,-11.86 c 0.18,-0.43 0.28,-0.9 0.28,-1.4 0,-0.2 -0.03,-0.39 -0.06,-0.58 l 6.08,-2.63 c 0.66,0.86 1.7,1.43 2.87,1.43 0.22,0 0.42,-0.03 0.63,-0.06 l 6.78,15.04 c -0.03,0.01 -0.05,0.04 -0.08,0.06 z m 3.69,-0.6 c -0.42,-0.17 -0.87,-0.27 -1.35,-0.27 -0.22,0 -0.43,0.03 -0.64,0.06 l -1.46,-3.24 -5.32,-11.79 c 0.5,-0.4 0.9,-0.92 1.14,-1.53 l 3.92,0.49 12.26,1.52 c 0.09,0.71 0.38,1.35 0.81,1.87 l -1.58,2.18 z m 22.13,2.48 h -19.97 c -0.14,-0.54 -0.39,-1.02 -0.73,-1.43 l 9.37,-12.89 c 0.42,0.17 0.87,0.27 1.35,0.27 0.48,0 0.93,-0.1 1.35,-0.27 l 9.37,12.89 c -0.35,0.41 -0.61,0.89 -0.74,1.43 z m 4.15,-2.68 c -0.21,-0.04 -0.42,-0.06 -0.64,-0.06 -0.48,0 -0.93,0.1 -1.35,0.27 l -3.84,-5.28 -5.53,-7.61 c 0.44,-0.52 0.72,-1.16 0.81,-1.87 l 12.45,-1.54 3.75,-0.46 c 0.22,0.58 0.6,1.08 1.07,1.47 l -6.48,14.58 z m 1.69,0.8 c -0.03,-0.02 -0.05,-0.04 -0.08,-0.06 l 0.23,-0.52 6.55,-14.53 c 0.21,0.04 0.42,0.06 0.64,0.06 1.16,0 2.18,-0.55 2.85,-1.4 l 7.88,3.38 z m 10.92,-18.1 c 0.03,-0.19 0.06,-0.38 0.06,-0.58 0,-1.07 -0.47,-2.02 -1.21,-2.69 l 4.2,-7.93 3.41,-6.45 c 0.05,0.01 0.1,0.02 0.15,0.03 l 1.36,21.07 z m 8.38,-17.74 c 1.15,-0.37 2.05,-1.29 2.38,-2.46 h 0.92 2.17 c 0.23,0.92 0.81,1.69 1.58,2.18 l -5.91,18.18 z"
   inkscape:connector-curvature="0"
   style="fill:#339cd1" />
	</g>
	<g
   id="XMLID_3_">
		<path
   id="XMLID_11_"
   class="st0"
   d="m 409.3,299.23 h -14.7 c -1.86,0 -3.59,-0.33 -5.17,-0.98 -1.58,-0.65 -2.96,-1.57 -4.12,-2.74 -1.16,-1.17 -2.07,-2.56 -2.72,-4.17 -0.65,-1.61 -0.98,-3.37 -0.98,-5.28 0,-1.91 0.33,-3.67 0.98,-5.28 0.65,-1.61 1.56,-3 2.72,-4.17 1.16,-1.17 2.53,-2.09 4.12,-2.74 1.58,-0.65 3.31,-0.98 5.17,-0.98 1.84,0 3.55,0.33 5.13,0.98 1.58,0.65 2.96,1.56 4.12,2.74 1.16,1.17 2.07,2.56 2.72,4.17 0.65,1.61 0.98,3.36 0.98,5.27 0,2.27 -0.5,4.34 -1.51,6.21 -1,1.87 -2.51,3.39 -4.52,4.55 v 0.07 h 7.77 v 2.35 z m -24.93,-13.17 c 0,1.45 0.24,2.82 0.71,4.12 0.47,1.3 1.14,2.45 2.01,3.45 0.87,1 1.94,1.8 3.21,2.39 1.27,0.59 2.7,0.89 4.3,0.89 1.57,0 2.99,-0.3 4.26,-0.89 1.27,-0.59 2.35,-1.39 3.23,-2.39 0.88,-1 1.57,-2.15 2.05,-3.45 0.48,-1.3 0.73,-2.68 0.73,-4.12 0,-1.45 -0.24,-2.82 -0.73,-4.12 -0.48,-1.3 -1.17,-2.45 -2.05,-3.45 -0.88,-1 -1.96,-1.8 -3.23,-2.39 -1.27,-0.59 -2.69,-0.89 -4.26,-0.89 -1.6,0 -3.03,0.3 -4.3,0.89 -1.27,0.59 -2.34,1.39 -3.21,2.39 -0.87,1 -1.54,2.15 -2.01,3.45 -0.48,1.3 -0.71,2.67 -0.71,4.12 z"
   inkscape:connector-curvature="0"
   style="fill:#339cd1" />
		<path
   id="XMLID_9_"
   class="st0"
   d="m 449.24,299.23 h -2.61 v -23.37 h -8.6 v -2.32 h 19.81 v 2.32 h -8.6 z"
   inkscape:connector-curvature="0"
   style="fill:#339cd1" />
		<path
   id="XMLID_7_"
   class="st0"
   d="m 499.68,299.89 c -1.94,0 -3.52,-0.33 -4.75,-1 -1.23,-0.66 -2.21,-1.51 -2.94,-2.52 -0.73,-1.01 -1.23,-2.12 -1.51,-3.32 -0.28,-1.2 -0.42,-2.33 -0.42,-3.39 v -16.11 h 2.61 v 15.82 c 0,1.04 0.12,2.05 0.36,3.03 0.24,0.98 0.64,1.85 1.18,2.61 0.54,0.76 1.26,1.38 2.16,1.85 0.89,0.47 1.99,0.71 3.3,0.71 1.31,0 2.41,-0.24 3.3,-0.71 0.89,-0.47 1.61,-1.09 2.16,-1.85 0.54,-0.76 0.94,-1.63 1.18,-2.61 0.24,-0.98 0.36,-1.99 0.36,-3.03 v -15.82 h 2.61 v 16.11 c 0,1.07 -0.14,2.2 -0.42,3.39 -0.28,1.2 -0.78,2.3 -1.51,3.32 -0.72,1.02 -1.71,1.86 -2.96,2.52 -1.22,0.66 -2.8,1 -4.71,1 z"
   inkscape:connector-curvature="0"
   style="fill:#339cd1" />
		<path
   id="XMLID_4_"
   class="st0"
   d="m 564.47,273.52 -11.3,5.9 -10.59,-5.9 -2.07,1.31 v 24.41 h 2.61 v -22.32 h 0.07 l 20.03,11.93 v 10.39 h 2.61 v -23.87 z m -8.35,7.93 7.11,-3.82 -0.02,8.02 z"
   inkscape:connector-curvature="0"
   style="fill:#339cd1" />
	</g>
</g>


</svg>