
		<svg xmlns="http://www.w3.org/2000/svg" xmlns:xlink="http://www.w3.org/1999/xlink" version="1.1" width="3356.294549730697" height="2265.803856414427">
			<rect fill="#000000" width="3356.294549730697" height="2265.803856414427"/>
			<g transform="scale(17.814727486534842) translate(10, 10)">
				<defs id="SvgjsDefs1201"><linearGradient id="SvgjsLinearGradient1205"><stop id="SvgjsStop1206" stop-color="#b88746" offset="0"></stop><stop id="SvgjsStop1207" stop-color="#fdf5a6" offset="1"></stop></linearGradient><linearGradient id="SvgjsLinearGradient1208"><stop id="SvgjsStop1209" stop-color="#b88746" offset="0"></stop><stop id="SvgjsStop1210" stop-color="#fdf5a6" offset="1"></stop></linearGradient></defs><g id="SvgjsG1202" featureKey="root" fill="#000000" transform="matrix(1,0,0,1,NaN,NaN)"></g><g id="SvgjsG1203" featureKey="text1" fill="url(#SvgjsLinearGradient1205)" transform="matrix(4.566159916060121,0,0,4.566159916060121,-3.1963045383720425,-34.56572182585784)"><path d="M5.72 9.76 c2.38 0 3.96 1.52 4.66 2.9 l-1.94 1.14 c-0.74 -1.1 -1.54 -1.72 -2.72 -1.72 c-1.12 0 -1.92 0.66 -1.92 1.56 c0 0.86 0.52 1.36 1.72 1.8 l0.96 0.36 c2.98 1.06 4.28 2.36 4.28 4.36 c0 2.72 -2.58 4.14 -4.96 4.14 c-2.5 0 -4.46 -1.48 -5.1 -3.44 l2.02 -1.06 c0.5 1.12 1.44 2.12 3.08 2.12 c1.24 0 2.24 -0.6 2.24 -1.72 c0 -1.14 -0.72 -1.64 -2.28 -2.22 l-0.9 -0.32 c-2.08 -0.76 -3.66 -1.8 -3.66 -4.12 c0 -2.2 2.02 -3.78 4.52 -3.78 z M21.96 10 l2.62 0 l0 14 l-2 0 l-7.3 -9.22 l0 9.22 l-2.62 0 l0 -14 l2.02 0 l7.28 9.24 l0 -9.24 z M37.5 10 l-6.84 11.74 l6.92 0 l0 2.26 l-11.1 0 l6.84 -11.76 l-6.46 0 l0 -2.24 l10.64 0 z"></path></g><g id="SvgjsG1204" featureKey="text3" fill="url(#SvgjsLinearGradient1208)" transform="matrix(0.8112236150505481,0,0,0.8112236150505481,2.091428676926653,85.39221182289887)"><path d="M9.5 17.42 c0.2 -0.06 0.38 -0.12 0.52 -0.16 l0.58 1.92 c-0.14 0.04 -0.3 0.08 -0.48 0.14 c-0.8 0.26 -2 0.66 -3.28 0.82 c-0.4 0.06 -0.78 0.08 -1.14 0.08 c-1.18 0 -2.14 -0.26 -2.88 -0.8 c-1.14 -0.82 -1.7 -2.2 -1.7 -4.08 l0 -3.54 c0 -1.88 0.56 -3.26 1.7 -4.08 c0.98 -0.7 2.32 -0.96 4.02 -0.72 c1.28 0.16 2.48 0.56 3.28 0.82 c0.18 0.06 0.34 0.1 0.48 0.14 l-0.58 1.92 c-0.14 -0.04 -0.32 -0.1 -0.52 -0.16 c-0.72 -0.24 -1.82 -0.6 -2.92 -0.74 c-1.16 -0.16 -2.04 -0.04 -2.58 0.36 c-0.58 0.42 -0.88 1.26 -0.88 2.46 l0 3.54 c0 1.2 0.3 2.04 0.88 2.46 c0.54 0.4 1.42 0.52 2.58 0.36 c1.1 -0.14 2.2 -0.5 2.92 -0.74 z M22.36 8.9 c0.92 1.14 1.4 2.72 1.4 4.7 s-0.48 3.56 -1.4 4.7 c-0.5 0.62 -1.14 1.08 -1.88 1.4 s-1.58 0.48 -2.52 0.48 s-1.78 -0.16 -2.52 -0.48 s-1.38 -0.78 -1.88 -1.4 c-0.92 -1.14 -1.4 -2.72 -1.4 -4.7 s0.48 -3.56 1.4 -4.7 c0.5 -0.62 1.14 -1.1 1.88 -1.42 s1.58 -0.48 2.52 -0.48 s1.78 0.16 2.52 0.48 s1.38 0.8 1.88 1.42 z M20.82 17.04 c0.62 -0.76 0.94 -1.96 0.94 -3.44 c0 -1.5 -0.32 -2.68 -0.94 -3.44 s-1.58 -1.16 -2.86 -1.16 c-1.26 0 -2.22 0.4 -2.84 1.16 s-0.96 1.94 -0.96 3.44 c0 1.48 0.34 2.68 0.96 3.44 s1.58 1.14 2.84 1.14 c1.28 0 2.24 -0.38 2.86 -1.14 z M33.46 7.199999999999999 l2 0 l0 12.8 l-2.24 0 l-5.48 -9.26 l0 9.26 l-2 0 l0 -12.8 l1.1 0 l0.02 0 l1.12 0 l5.48 9.28 l0 -9.28 z M45.760000000000005 7.199999999999999 l2 0 l0 12.8 l-2.24 0 l-5.48 -9.26 l0 9.26 l-2 0 l0 -12.8 l1.1 0 l0.02 0 l1.12 0 l5.48 9.28 l0 -9.28 z M52.52 17.98 l5.42 0 l0 2 l-7.42 0 l0 -12.78 l6.96 0 l0 2 l-4.96 0 l0 2.96 l4.6 0 l0 2 l-4.6 0 l0 3.82 z M68.24000000000001 17.42 c0.2 -0.06 0.38 -0.12 0.52 -0.16 l0.58 1.92 c-0.14 0.04 -0.3 0.08 -0.48 0.14 c-0.8 0.26 -2 0.66 -3.28 0.82 c-0.4 0.06 -0.78 0.08 -1.14 0.08 c-1.18 0 -2.14 -0.26 -2.88 -0.8 c-1.14 -0.82 -1.7 -2.2 -1.7 -4.08 l0 -3.54 c0 -1.88 0.56 -3.26 1.7 -4.08 c0.98 -0.7 2.32 -0.96 4.02 -0.72 c1.28 0.16 2.48 0.56 3.28 0.82 c0.18 0.06 0.34 0.1 0.48 0.14 l-0.58 1.92 c-0.14 -0.04 -0.32 -0.1 -0.52 -0.16 c-0.72 -0.24 -1.82 -0.6 -2.92 -0.74 c-1.16 -0.16 -2.04 -0.04 -2.58 0.36 c-0.58 0.42 -0.88 1.26 -0.88 2.46 l0 3.54 c0 1.2 0.3 2.04 0.88 2.46 c0.54 0.4 1.42 0.52 2.58 0.36 c1.1 -0.14 2.2 -0.5 2.92 -0.74 z M79.1 7.199999999999999 l0 2 l-3.12 0 l0 10.8 l-2 0 l0 -10.8 l-3.1 0 l0 -2 l8.22 0 z  M94.6 7.199999999999999 l0 2 l-3.12 0 l0 10.8 l-2 0 l0 -10.8 l-3.1 0 l0 -2 l8.22 0 z M106.11999999999999 8.9 c0.92 1.14 1.4 2.72 1.4 4.7 s-0.48 3.56 -1.4 4.7 c-0.5 0.62 -1.14 1.08 -1.88 1.4 s-1.58 0.48 -2.52 0.48 s-1.78 -0.16 -2.52 -0.48 s-1.38 -0.78 -1.88 -1.4 c-0.92 -1.14 -1.4 -2.72 -1.4 -4.7 s0.48 -3.56 1.4 -4.7 c0.5 -0.62 1.14 -1.1 1.88 -1.42 s1.58 -0.48 2.52 -0.48 s1.78 0.16 2.52 0.48 s1.38 0.8 1.88 1.42 z M104.58 17.04 c0.62 -0.76 0.94 -1.96 0.94 -3.44 c0 -1.5 -0.32 -2.68 -0.94 -3.44 s-1.58 -1.16 -2.86 -1.16 c-1.26 0 -2.22 0.4 -2.84 1.16 s-0.96 1.94 -0.96 3.44 c0 1.48 0.34 2.68 0.96 3.44 s1.58 1.14 2.84 1.14 c1.28 0 2.24 -0.38 2.86 -1.14 z  M117.66 17.98 l5.42 0 l0 2 l-7.42 0 l0 -12.78 l6.96 0 l0 2 l-4.96 0 l0 2.96 l4.6 0 l0 2 l-4.6 0 l0 3.82 z M126.67999999999999 20 l-2.02 0 l1.32 -12.8 l3.28 0 l2.46 9.86 l2.46 -9.86 l3.28 0 l1.32 12.8 l-2.02 0 l-1.08 -10.62 l-2.8 10.62 l-2.32 0 l-2.78 -10.62 z M149.26 8.36 c0.86 0.78 1.34 1.9 1.34 3.1 c0 1.22 -0.48 2.32 -1.34 3.12 c-0.4 0.36 -0.86 0.66 -1.38 0.86 c-0.5 0.18 -1.04 0.28 -1.58 0.28 l-3.48 0 l0 4.28 l-2 0 l0 -12.8 l5.48 0 c0.54 0 1.08 0.1 1.58 0.3 c0.52 0.2 0.98 0.48 1.38 0.86 z M146.3 13.719999999999999 c1.1 0 2.3 -0.78 2.3 -2.26 s-1.2 -2.26 -2.3 -2.26 l-3.48 0 l0 4.52 l3.48 0 z M162.18 8.9 c0.92 1.14 1.4 2.72 1.4 4.7 s-0.48 3.56 -1.4 4.7 c-0.5 0.62 -1.14 1.08 -1.88 1.4 s-1.58 0.48 -2.52 0.48 s-1.78 -0.16 -2.52 -0.48 s-1.38 -0.78 -1.88 -1.4 c-0.92 -1.14 -1.4 -2.72 -1.4 -4.7 s0.48 -3.56 1.4 -4.7 c0.5 -0.62 1.14 -1.1 1.88 -1.42 s1.58 -0.48 2.52 -0.48 s1.78 0.16 2.52 0.48 s1.38 0.8 1.88 1.42 z M160.64000000000001 17.04 c0.62 -0.76 0.94 -1.96 0.94 -3.44 c0 -1.5 -0.32 -2.68 -0.94 -3.44 s-1.58 -1.16 -2.86 -1.16 c-1.26 0 -2.22 0.4 -2.84 1.16 s-0.96 1.94 -0.96 3.44 c0 1.48 0.34 2.68 0.96 3.44 s1.58 1.14 2.84 1.14 c1.28 0 2.24 -0.38 2.86 -1.14 z M179 7.220000000000001 l2.02 0 c0.1 1.6 -0.06 3.2 -0.46 4.86 c-0.48 1.9 -1.2 3.54 -1.84 4.98 c-0.48 1.12 -0.92 2.1 -1.12 2.94 l-2.7 0 c-0.18 -0.8 -0.48 -1.74 -0.82 -2.82 s-0.7 -2.26 -1.04 -3.54 c-0.34 1.36 -0.74 2.58 -1.1 3.7 c-0.32 1.02 -0.62 1.9 -0.8 2.66 l-2.64 0 c-0.22 -0.84 -0.64 -1.82 -1.14 -2.94 c-0.64 -1.44 -1.36 -3.08 -1.82 -4.98 c-0.42 -1.66 -0.58 -3.26 -0.48 -4.86 l2.02 0 c-0.26 3.64 1.04 6.6 2.12 9.04 c0.2 0.46 0.38 0.88 0.56 1.32 c0.08 -0.28 0.18 -0.56 0.28 -0.86 c0.84 -2.6 1.86 -5.78 1.98 -9.5 l2.02 0 c0.12 3.52 1.14 6.74 1.96 9.36 c0.1 0.36 0.22 0.7 0.32 1.02 c0.18 -0.44 0.36 -0.88 0.58 -1.34 c1.06 -2.44 2.38 -5.4 2.1 -9.04 z M185.26000000000002 17.98 l5.42 0 l0 2 l-7.42 0 l0 -12.78 l6.96 0 l0 2 l-4.96 0 l0 2.96 l4.6 0 l0 2 l-4.6 0 l0 3.82 z M200.32000000000002 20 c-0.08 -1.8 -1.22 -2.92 -2.86 -4.28 l-2.76 0 l0 4.28 l-2 0 l0 -12.78 l1.38 0 l0.62 0 l3.48 0 c0.56 0 1.08 0.1 1.6 0.28 c0.5 0.2 0.98 0.5 1.36 0.86 c0.86 0.8 1.34 1.9 1.34 3.1 c0 1.22 -0.48 2.32 -1.34 3.1 c-0.32 0.32 -0.7 0.56 -1.1 0.76 c0.34 0.34 0.66 0.68 0.96 1.08 c0.84 1.08 1.26 2.24 1.32 3.52 l0 0.08 l-2 0 l0 0 z M194.70000000000002 13.719999999999999 l3.48 0 c1.12 0 2.3 -0.8 2.3 -2.26 s-1.18 -2.24 -2.3 -2.24 l-3.48 0 l0 4.5 z"></path></g>
			</g>
		</svg>
	