<?xml version="1.0" encoding="UTF-8" standalone="no"?>
<!-- Generator: Adobe Illustrator 23.0.1, SVG Export Plug-In . SVG Version: 6.00 Build 0)  -->

<svg
   xmlns:dc="http://purl.org/dc/elements/1.1/"
   xmlns:cc="http://creativecommons.org/ns#"
   xmlns:rdf="http://www.w3.org/1999/02/22-rdf-syntax-ns#"
   xmlns:svg="http://www.w3.org/2000/svg"
   xmlns="http://www.w3.org/2000/svg"
   xmlns:sodipodi="http://sodipodi.sourceforge.net/DTD/sodipodi-0.dtd"
   xmlns:inkscape="http://www.inkscape.org/namespaces/inkscape"
   version="1.1"
   id="图层_1"
   x="0px"
   y="0px"
   viewBox="0 0 578.75 91.650002"
   xml:space="preserve"
   sodipodi:docname="xintongyuan.svg"
   width="578.75"
   height="91.650002"
   inkscape:version="0.92.4 5da689c313, 2019-01-14"><metadata
   id="metadata634"><rdf:RDF><cc:Work
       rdf:about=""><dc:format>image/svg+xml</dc:format><dc:type
         rdf:resource="http://purl.org/dc/dcmitype/StillImage" /><dc:title></dc:title></cc:Work></rdf:RDF></metadata><defs
   id="defs632" /><sodipodi:namedview
   pagecolor="#ffffff"
   bordercolor="#666666"
   borderopacity="1"
   objecttolerance="10"
   gridtolerance="10"
   guidetolerance="10"
   inkscape:pageopacity="0"
   inkscape:pageshadow="2"
   inkscape:window-width="1920"
   inkscape:window-height="2048"
   id="namedview630"
   showgrid="false"
   fit-margin-top="10"
   fit-margin-left="10"
   fit-margin-right="10"
   fit-margin-bottom="10"
   inkscape:zoom="0.86915208"
   inkscape:cx="285.39011"
   inkscape:cy="65.906979"
   inkscape:window-x="1920"
   inkscape:window-y="0"
   inkscape:window-maximized="0"
   inkscape:current-layer="图层_1" />
<style
   type="text/css"
   id="style2">
	.st0{fill:url(#SVGID_1_);}
	.st1{fill:url(#SVGID_2_);}
	.st2{fill:url(#SVGID_3_);}
	.st3{fill:url(#SVGID_4_);}
	.st4{fill:url(#SVGID_5_);}
	.st5{fill:url(#SVGID_6_);}
	.st6{fill:url(#SVGID_7_);}
	.st7{fill:url(#SVGID_8_);}
	.st8{fill:url(#SVGID_9_);}
	.st9{fill:url(#SVGID_10_);}
	.st10{fill:url(#SVGID_11_);}
	.st11{fill:url(#SVGID_12_);}
	.st12{fill:url(#SVGID_13_);}
	.st13{fill:url(#SVGID_14_);}
	.st14{fill:#00125E;}
	.st15{fill:url(#SVGID_15_);}
	.st16{fill:url(#SVGID_16_);}
	.st17{fill:url(#SVGID_17_);}
	.st18{fill:url(#SVGID_18_);}
	.st19{fill:url(#SVGID_19_);}
	.st20{fill:url(#SVGID_20_);}
	.st21{fill:url(#SVGID_21_);}
</style>


<g
   id="g627"
   transform="translate(-383.93,-454.5)">
	<path
   class="st14"
   d="m 646.4,499.68 v -3.99 c 0.1,-2.26 0.25,-4.55 0.45,-6.81 l 0.03,-0.37 -0.37,0.03 c -2.24,0.19 -4.88,0.29 -7.83,0.29 h -4.58 c 0.01,-1.56 0.05,-3.04 0.15,-4.43 0,-0.44 0.42,-3.08 0.42,-3.08 0,0 -1.43,0.05 -2.19,0.03 -0.64,-0.02 -2.63,-0.11 -2.63,-0.11 l 0.06,0.39 c 0.19,1.14 0.29,3.56 0.29,7.2 h -5.01 c -2.84,-0.09 -5.33,-0.19 -7.41,-0.29 l -0.37,-0.02 0.05,0.37 c 0.19,1.46 0.34,3.74 0.44,6.78 v 3.99 c -0.1,3.14 -0.25,5.32 -0.44,6.48 l -0.06,0.36 h 4.23 c 1.68,-0.03 7.19,-0.13 8.57,-0.15 v 3.99 c 0,2.84 -0.05,4.72 -0.15,5.6 l -0.04,0.35 h 4.4 l -0.03,-0.34 c -0.1,-1.21 -0.2,-3.1 -0.29,-5.61 v -4 l 8.6,-0.04 c 1.44,-0.03 3.84,0.02 3.84,0.02 l 0.39,0.01 -0.08,-0.38 c -0.19,-0.94 -0.35,-3.12 -0.44,-6.27 z m -16.2,-7.54 v 10.78 h -8.42 v -10.78 z m 12.16,0 v 10.78 h -8.27 v -10.78 z"
   id="path364"
   inkscape:connector-curvature="0"
   style="fill:#00125e" />
	<path
   class="st14"
   d="m 684.15,513.02 v -26.24 c 0,-1.56 0.16,-4.11 0.16,-4.11 0,0 -2.33,0.24 -4.18,0.24 h -22.39 c -1.47,0 -4.2,-0.2 -4.2,-0.2 0.23,3.21 0.18,2.94 0.18,3.92 v 26.39 c 0,0.8 -0.21,2.95 -0.21,2.95 0,0 2.89,-0.09 3.63,-0.12 h 23.43 c 1.31,-0.05 3.76,0.05 3.76,0.05 0,0 -0.18,-1.7 -0.18,-2.88 z m -3.89,-26.66 v 26.49 h -22.8 v -26.49 z"
   id="path366"
   inkscape:connector-curvature="0"
   style="fill:#00125e" />
	<path
   class="st14"
   d="m 665.16,508.85 h 7.86 c 2.07,0 4,0.1 5.75,0.3 l 0.35,0.04 v -3.8 l -0.33,0.02 c -0.67,0.04 -1.38,0.08 -2.13,0.12 -0.02,-0.75 -0.01,-1.77 0.16,-2.81 l 0.07,-0.4 -0.4,0.03 c -0.01,0 -0.71,0.06 -1.52,0.06 -0.62,0 -1.12,-0.04 -1.51,-0.1 l -0.42,-0.07 0.05,0.42 c 0,0.02 0.22,1.69 0.13,3.03 l -2.55,0.01 v -5.45 h 3.23 c 1.76,0.1 2.96,0.15 3.58,0.15 h 0.31 v -3.79 l -0.36,0.05 c -1.36,0.19 -3.09,0.34 -5.14,0.44 h -1.62 v -3.67 h 1.62 c 2.35,0 4.33,0.1 5.89,0.29 l 0.35,0.04 v -3.65 l -0.33,0.02 c -1.5,0.1 -3.49,0.2 -5.91,0.3 h -6.51 c -2.17,-0.1 -4.05,-0.2 -5.63,-0.3 l -0.33,-0.02 v 3.64 l 0.34,-0.03 c 1.17,-0.1 3.11,-0.15 5.75,-0.15 h 1.17 v 3.52 h -1.17 c -1.76,0 -3.45,-0.1 -5,-0.3 l -0.35,-0.04 v 3.81 l 0.34,-0.02 c 1.38,-0.1 3.06,-0.2 5.02,-0.29 h 1.17 v 5.45 h -2.04 c -2.27,-0.1 -4.25,-0.2 -5.93,-0.3 l -0.33,-0.02 v 3.84 l 0.38,-0.09 c 0.83,-0.19 2.86,-0.28 5.99,-0.28 z"
   id="path368"
   inkscape:connector-curvature="0"
   style="fill:#00125e" />
	<path
   class="st14"
   d="m 699.83,485.59 c 0.04,-0.08 1.59,-1.94 1.58,-2.16 -2.65,-0.86 -4.9,-1.95 -4.9,-1.95 l -0.08,0.34 c -1.57,6.45 -4.14,11.85 -7.64,16.03 l -0.16,0.19 2.65,3.53 0.24,-0.39 c 1.25,-1.98 2.18,-3.56 2.83,-4.77 v 13.21 c 0,2.14 -0.1,4.13 -0.29,5.89 l -0.04,0.35 h 4.25 l -0.03,-0.34 c -0.1,-1.06 -0.15,-3.04 -0.15,-6.05 v -20.05 c 0.15,-0.29 1.25,-2.95 1.74,-3.83 z"
   id="path370"
   inkscape:connector-curvature="0"
   style="fill:#00125e" />
	<path
   class="st14"
   d="m 720.77,512.43 v -6.97 c 0,-1.06 0.05,-1.84 0.14,-2.31 l 0.08,-0.51 -0.75,0.06 c -0.87,0.1 -2.61,0.22 -2.9,0.22 h -12.16 c -1.07,0 -2.1,-0.1 -3.05,-0.29 l -0.43,-0.09 0.05,0.43 c 0.1,0.79 0.15,1.57 0.15,2.33 v 7.12 c 0,1.05 0,2.35 -0.08,2.55 l -0.22,0.46 0.51,-0.01 c 0.02,0 1.41,-0.03 3.11,-0.13 0.1,0 10.34,-0.05 11.96,-0.08 l 3.83,0.1 -0.14,-0.43 c -0.1,-0.27 -0.1,-1.63 -0.1,-2.45 z m -3.71,0.17 h -11.53 l -0.03,-6.67 h 11.53 z"
   id="path372"
   inkscape:connector-curvature="0"
   style="fill:#00125e" />
	<path
   class="st14"
   d="m 714.82,492.4 h -7.56 c -2.06,0 -3.99,-0.1 -5.75,-0.29 l -0.35,-0.04 v 3.48 h 0.32 c 0.5,0 1.65,-0.05 3.41,-0.15 h 9.92 c 2.74,0.1 4.83,0.2 6.21,0.29 l 0.34,0.02 v -3.5 l -0.35,0.04 c -0.98,0.1 -3.06,0.15 -6.19,0.15 z"
   id="path374"
   inkscape:connector-curvature="0"
   style="fill:#00125e" />
	<path
   class="st14"
   d="m 717.05,487.06 h -3.32 c -0.05,-0.95 -0.08,-2.47 0.14,-3.79 l 0.06,-0.38 -0.39,0.02 c -0.01,0 -1.13,0.06 -2.26,0.06 -0.86,0 -1.49,-0.03 -1.88,-0.1 l -0.41,-0.07 0.04,0.41 c 0,0.02 0.24,2.32 0.12,3.85 h -3.22 c -1.29,0 -3.22,-0.1 -5.76,-0.3 l -0.34,-0.02 v 3.8 l 0.35,-0.04 c 1.77,-0.19 3.7,-0.29 5.75,-0.29 h 11.27 c 2.24,0 4.17,0.1 5.74,0.29 l 0.35,0.04 v -3.81 l -0.35,0.04 c -1.95,0.19 -3.93,0.29 -5.89,0.29 z"
   id="path376"
   inkscape:connector-curvature="0"
   style="fill:#00125e" />
	<path
   class="st14"
   d="m 715.27,497.29 h -8.15 c -1.19,0 -3.08,-0.1 -5.61,-0.3 l -0.34,-0.03 v 3.5 l 0.34,-0.03 c 1.08,-0.1 2.97,-0.15 5.61,-0.15 h 8.15 c 2.45,0 4.33,0.1 5.59,0.29 l 0.36,0.05 v -3.54 l -0.35,0.04 c -0.78,0.12 -2.66,0.17 -5.6,0.17 z"
   id="path378"
   inkscape:connector-curvature="0"
   style="fill:#00125e" />
	<path
   class="st14"
   d="m 813.97,485.59 c 0.04,-0.08 1.59,-1.94 1.58,-2.16 -2.65,-0.86 -4.9,-1.95 -4.9,-1.95 l -0.08,0.34 c -1.56,6.45 -4.14,11.85 -7.64,16.03 l -0.16,0.19 2.65,3.53 0.24,-0.39 c 1.25,-1.98 2.19,-3.56 2.83,-4.77 v 13.21 c 0,2.14 -0.1,4.13 -0.29,5.89 l -0.04,0.35 h 4.25 l -0.03,-0.34 c -0.1,-1.06 -0.14,-3.04 -0.14,-6.05 v -20.05 c 0.14,-0.29 1.24,-2.95 1.73,-3.83 z"
   id="path380"
   inkscape:connector-curvature="0"
   style="fill:#00125e" />
	<path
   class="st14"
   d="m 834.91,512.43 v -6.97 c 0,-1.06 0.05,-1.84 0.14,-2.31 l 0.08,-0.51 -0.75,0.06 c -0.87,0.1 -2.61,0.22 -2.9,0.22 h -12.16 c -1.07,0 -2.1,-0.1 -3.05,-0.29 l -0.43,-0.09 0.05,0.43 c 0.1,0.79 0.14,1.57 0.14,2.33 v 7.12 c 0,1.05 0,2.35 -0.08,2.55 l -0.22,0.46 0.51,-0.01 c 0.01,0 1.41,-0.03 3.1,-0.13 0.1,0 10.34,-0.05 11.96,-0.08 l 3.83,0.1 -0.14,-0.43 c -0.08,-0.27 -0.08,-1.63 -0.08,-2.45 z m -3.71,0.17 h -11.53 l -0.03,-6.67 h 11.53 z"
   id="path382"
   inkscape:connector-curvature="0"
   style="fill:#00125e" />
	<path
   class="st14"
   d="m 828.96,492.4 h -7.56 c -2.06,0 -3.99,-0.1 -5.75,-0.29 l -0.34,-0.04 v 3.48 h 0.31 c 0.5,0 1.65,-0.05 3.41,-0.15 h 9.92 c 2.74,0.1 4.83,0.2 6.21,0.29 l 0.34,0.02 v -3.5 l -0.35,0.04 c -0.98,0.1 -3.06,0.15 -6.19,0.15 z"
   id="path384"
   inkscape:connector-curvature="0"
   style="fill:#00125e" />
	<path
   class="st14"
   d="m 831.19,487.06 h -3.32 c -0.05,-0.95 -0.08,-2.47 0.14,-3.79 l 0.06,-0.38 -0.39,0.02 c -0.01,0 -1.13,0.06 -2.26,0.06 -0.86,0 -1.49,-0.03 -1.88,-0.1 l -0.41,-0.07 0.04,0.41 c 0,0.02 0.25,2.32 0.12,3.85 h -3.22 c -1.28,0 -3.22,-0.1 -5.76,-0.3 l -0.34,-0.02 v 3.8 l 0.35,-0.04 c 1.77,-0.19 3.7,-0.29 5.75,-0.29 h 11.27 c 2.24,0 4.18,0.1 5.74,0.29 l 0.35,0.04 v -3.81 l -0.34,0.04 c -1.96,0.19 -3.94,0.29 -5.9,0.29 z"
   id="path386"
   inkscape:connector-curvature="0"
   style="fill:#00125e" />
	<path
   class="st14"
   d="m 829.41,497.29 h -8.16 c -1.18,0 -3.07,-0.1 -5.61,-0.3 l -0.34,-0.03 v 3.5 l 0.34,-0.03 c 1.09,-0.1 2.97,-0.15 5.6,-0.15 h 8.16 c 2.45,0 4.33,0.1 5.59,0.29 l 0.36,0.05 v -3.54 l -0.35,0.04 c -0.77,0.12 -2.65,0.17 -5.59,0.17 z"
   id="path388"
   inkscape:connector-curvature="0"
   style="fill:#00125e" />
	<path
   class="st14"
   d="m 751.16,508.32 -0.42,-0.35 -0.05,0.62 c -0.24,2.55 -1.07,3.28 -2.98,3.28 -0.21,0 -5.79,0.01 -5.79,0.01 -0.78,0.02 -1.39,-0.05 -1.66,-0.34 -0.17,-0.19 -0.2,-0.31 -0.25,-0.9 l 0.05,-4.08 c 0,-0.93 0.41,-1.87 0.41,-1.87 -2.06,-0.19 -4.29,-0.24 -4.29,-0.24 0,0 0.13,2.38 0.13,2.94 v 4.71 c 0.04,0.96 0.1,1.54 0.55,2.04 0.59,0.66 1.6,0.98 3.09,0.98 0.13,0 0.26,0 0.38,-0.01 h 8.01 c 2.05,0 3.37,-0.21 4.02,-0.64 0.35,-0.22 0.98,-0.86 2.35,-4 l 0.16,-0.36 -0.39,-0.07 c -1.16,-0.33 -2.09,-0.67 -3.32,-1.72 z"
   id="path390"
   inkscape:connector-curvature="0"
   style="fill:#00125e" />
	<path
   class="st14"
   d="m 746.21,504.05 -3.76,1.43 0.3,0.34 c 0.85,0.95 1.63,2.46 2.31,4.48 l 0.1,0.3 4.05,-1.41 -0.16,-0.32 c -1.12,-2.22 -2,-3.74 -2.7,-4.65 z"
   id="path392"
   inkscape:connector-curvature="0"
   style="fill:#00125e" />
	<path
   class="st14"
   d="m 732.89,489.75 v 9.49 c 0,1.95 -0.05,3.33 -0.14,4.11 l -0.05,0.39 0.39,-0.04 c 0.98,-0.1 2.62,-0.15 4.86,-0.15 h 14.08 c 1.65,0 3.14,0.05 4.43,0.15 l 0.37,0.03 -0.04,-0.38 c -0.1,-0.97 -0.15,-2.37 -0.15,-4.27 v -9.34 c 0,-1.97 0.05,-3.41 0.15,-4.26 l 0.04,-0.39 -0.39,0.04 c -0.88,0.1 -2.41,0.15 -4.56,0.15 l -7.85,0.01 c 0.05,-0.33 0.09,-0.76 0.13,-1.23 0.06,-0.66 0.16,-1.39 0.28,-1.58 l 0.37,-0.89 c 0,0 -2,0.06 -2.66,0.06 -0.67,0 -2.68,-0.1 -2.68,-0.1 l 0.02,0.33 c 0.1,1.97 0.1,2.89 -0.01,3.37 l -1.83,0.01 c -1.47,0 -3.06,-0.05 -4.72,-0.15 l -0.4,-0.02 0.07,0.39 c 0.19,1.19 0.29,2.62 0.29,4.27 z m 3.59,10.51 v -1.89 h 16.42 v 1.89 z m 0,-4.89 v -2.04 h 16.42 v 2.04 z m 0,-4.9 v -2.04 h 16.42 v 2.04 z"
   id="path394"
   inkscape:connector-curvature="0"
   style="fill:#00125e" />
	<path
   class="st14"
   d="m 755.94,505.07 -0.18,-0.14 -3.39,2.15 0.37,0.27 c 1.84,1.36 3.71,3.38 5.56,6.01 l 0.17,0.24 3.69,-2.28 -0.25,-0.28 c -2.58,-2.87 -4.59,-4.88 -5.97,-5.97 z"
   id="path396"
   inkscape:connector-curvature="0"
   style="fill:#00125e" />
	<path
   class="st14"
   d="m 730.68,505.81 c -1.17,3.52 -2.16,5.99 -2.94,7.35 l -0.24,0.43 0.49,0.04 c 1.05,0.1 2.17,0.39 3.31,0.87 l 0.26,0.11 0.14,-0.24 c 0.89,-1.59 1.9,-4.16 2.99,-7.62 l 0.11,-0.33 -4.02,-0.87 z"
   id="path398"
   inkscape:connector-curvature="0"
   style="fill:#00125e" />
	<path
   class="st14"
   d="m 785.28,511.69 c -0.74,0 -1.49,-0.01 -2.22,-0.02 -4.29,-0.48 -7.64,-1.52 -9.95,-3.11 v -11.69 c 0,-0.78 0.19,-2.82 0.48,-5.2 -2.14,0.1 -5.3,0.09 -7.75,-0.01 l -0.33,-0.02 v 3.94 l 0.35,-0.04 c 0.83,-0.09 2.12,-0.14 3.8,-0.14 v 13.13 c -0.77,0.45 -2.33,1.45 -4.75,3.03 l -0.32,0.21 3.18,3.18 0.22,-0.26 c 2.12,-2.5 3.02,-2.96 3.32,-3 0.24,0 0.96,0.15 2.97,0.86 2.38,1.19 4.26,1.9 5.59,2.11 1.78,0.19 4.78,0.35 8.92,0.44 1.96,0.05 3.74,0.07 5.27,0.07 1.53,0 2.86,-0.02 3.94,-0.07 l 0.66,-0.03 c 0,0 0.13,-1.81 1.07,-3.58 l 0.47,-0.78 -0.86,0.11 c -4.45,0.61 -8.94,0.87 -14.06,0.87 z"
   id="path400"
   inkscape:connector-curvature="0"
   style="fill:#00125e" />
	<path
   class="st14"
   d="m 783.21,486.21 h 6.97 c -0.84,0.9 -1.88,1.75 -3.09,2.53 -0.76,-0.91 -1.62,-1.71 -2.55,-2.36 l -0.2,-0.14 -2.94,2.38 0.44,0.22 c 0.94,0.47 1.77,1.11 2.46,1.92 h -4.24 c -0.8,0 -1.69,-0.05 -2.67,-0.15 h -0.61 v 0.64 c 0.1,0.91 0.15,1.62 0.15,2.19 v 13.34 c 0,0.57 -0.15,3.42 -0.15,3.42 h 3.79 l -0.05,-0.36 c -0.1,-0.67 -0.14,-1.8 -0.14,-3.36 v -2.06 h 4.71 v 1.46 c 0,3.16 -0.09,4.31 -0.09,4.31 h 3.38 v -5.78 h 5 v 2.04 c -0.07,0.34 -0.41,0.57 -2.22,0.42 l -0.62,-0.12 0.29,0.78 c 0.52,1.49 0.5,3.09 0.5,3.09 0,0 0.8,0.06 1.05,0.04 3.99,-0.35 4.3,-1.12 4.3,-1.12 0.13,-0.39 0.43,-0.38 0.29,-11.22 v -5.04 c 0,-1.25 0.05,-2.08 0.14,-2.45 l 0.12,-0.47 -0.47,0.08 c -0.57,0.1 -1.52,0.14 -2.91,0.14 h -4.22 c 3.02,-1.9 5.02,-4.32 7.62,-7.18 l 0.53,-0.59 -0.79,0.06 c -1.27,0.1 -1.87,0.15 -3.59,0.15 h -10.19 c -1.86,0 -3.44,-0.1 -4.7,-0.29 l -0.36,-0.05 v 3.68 l 0.35,-0.04 c 0.78,-0.06 2.36,-0.11 4.71,-0.11 z m 5.17,15.38 v -2.63 h 5.15 v 2.63 z m 0,-5.48 v -2.49 h 5 v 2.49 z m -3.3,2.85 v 2.63 h -4.86 v -2.63 z m -4.86,-2.85 v -2.49 h 4.86 v 2.49 z"
   id="path402"
   inkscape:connector-curvature="0"
   style="fill:#00125e" />
	<path
   class="st14"
   d="M 854.65,507.69 V 495.9 c 0,-0.96 0.15,-2.42 0.15,-2.42 0,0 -1.55,0.11 -2.42,0.11 h -4.26 c 0.88,-2.32 1.61,-4.4 2.15,-6.19 h 1.7 c 0.66,0 1.51,0.1 2.92,0.3 l 0.36,0.05 v -3.99 l -0.37,0.06 c -1.16,0.2 -2.03,0.29 -2.91,0.29 H 845 c -1.26,0 -2.22,-0.09 -2.88,-0.29 l -0.4,-0.12 v 4.11 l 0.41,-0.13 c 0.57,-0.19 1.53,-0.28 2.87,-0.28 h 1.66 c -1.54,5.44 -3.57,9.29 -6.02,11.46 l -0.21,0.19 0.16,0.23 c 0.67,0.96 1.15,1.93 1.44,2.88 l 0.16,0.54 0.37,-0.42 c 0.63,-0.71 1.29,-1.6 1.97,-2.66 v 8.41 c 0,1.25 -0.11,2.61 -0.11,2.61 l 2.94,-0.11 h 0.78 c 0.76,0 1.99,0 3.21,0.01 l 3.42,0.12 c 0,-0.02 -0.12,-1.24 -0.12,-2.97 z m -3.3,-11.25 v 11.07 h -3.67 v -11.07 z"
   id="path404"
   inkscape:connector-curvature="0"
   style="fill:#00125e" />
	<path
   class="st14"
   d="m 871.23,496.41 h -0.13 v -9.75 c 1.73,0 2.96,0.05 3.65,0.15 l 0.36,0.05 v -3.66 l -0.34,0.03 c -1.38,0.1 -3.01,0.2 -4.88,0.29 h -9.19 c -0.2,0 -1.72,-0.04 -2.93,-0.17 -1.21,-0.1 -1.37,-0.13 -1.37,-0.13 v 3.63 l 0.35,-0.05 c 0.79,-0.1 1.76,-0.15 3.49,-0.15 0,4.57 -0.05,7.84 -0.13,9.75 h -0.45 c -1.08,0 -2.09,-0.1 -3.63,-0.3 l -0.35,-0.04 v 3.83 l 0.36,-0.05 c 1.36,-0.2 2.37,-0.29 3.63,-0.29 h 0.29 c 0.1,6.11 -2.49,10.6 -7.7,13.34 l -0.71,0.38 0.77,0.21 c 1.42,0.38 2.52,0.95 3.27,1.7 l 0.18,0.18 0.21,-0.14 c 4.75,-3.06 7.19,-8.29 7.26,-15.52 h 4.11 v 9.62 c 0,3.02 -0.05,4.91 -0.14,5.59 l -0.05,0.36 h 4.08 v -0.32 c 0,-0.39 -0.04,-1.31 -0.15,-2.97 v -12.43 h 2.19 c 1.37,0.1 2.28,0.15 2.69,0.15 h 0.31 v -3.64 l -0.36,0.05 c -1.34,0.2 -2.92,0.3 -4.69,0.3 z m -3.87,-9.76 v 9.75 h -3.96 c 0.02,-0.55 0.06,-1.23 0.15,-2.05 0.09,-4.03 0.14,-6.5 0.15,-7.7 z"
   id="path406"
   inkscape:connector-curvature="0"
   style="fill:#00125e" />
	<path
   class="st14"
   d="m 900.8,490.41 -2.5,2.86 0.37,0.18 c 4.01,1.96 7.28,3.94 9.72,5.89 l 0.23,0.19 2.81,-3.16 -0.29,-0.2 c -3.36,-2.27 -6.77,-4.18 -10.13,-5.66 z"
   id="path408"
   inkscape:connector-curvature="0"
   style="fill:#00125e" />
	<path
   class="st14"
   d="m 884.21,498.79 0.14,0.29 0.29,-0.16 c 5.23,-2.86 8.64,-4.92 10.13,-6.11 l 0.31,-0.25 -3.54,-2.63 -0.19,0.16 c -2.63,2.25 -5.85,4.22 -9.56,5.88 l -0.66,0.3 0.81,0.41 c 1.14,0.67 1.49,0.95 2.27,2.11 z"
   id="path410"
   inkscape:connector-curvature="0"
   style="fill:#00125e" />
	<path
   class="st14"
   d="m 881.31,492.33 -0.11,0.4 h 4.52 l -0.1,-0.39 c -0.19,-0.76 -0.29,-1.68 -0.29,-2.74 v -0.43 h 22.65 v 0.58 c 0,1.05 -0.1,1.92 -0.29,2.58 l -0.11,0.4 h 4.83 l -0.12,-0.4 C 912.1,491.68 912,490.76 912,489.6 v -0.89 c 0,-1.07 0.1,-1.99 0.29,-2.74 l 0.12,-0.45 -0.46,0.06 c -1.46,0.2 -2.64,0.29 -3.51,0.29 h -9.22 c -0.03,-1.05 0,-1.44 0.09,-2.61 l 0.11,-1.38 c 0,0 -1.5,0.08 -2.02,0.08 -0.61,0 -2.49,-0.07 -2.49,-0.07 0,0 0.05,1.64 0.07,2.07 0.03,0.67 0.05,1.1 0.02,2 l -9.84,-0.1 c -0.98,0 -2.16,-0.1 -3.52,-0.29 l -0.44,-0.06 0.09,0.43 c 0.19,0.97 0.29,1.94 0.29,2.91 v 0.89 c 0.02,1.06 -0.08,1.93 -0.27,2.59 z"
   id="path412"
   inkscape:connector-curvature="0"
   style="fill:#00125e" />
	<path
   class="st14"
   d="m 910.56,507.73 -0.45,-0.34 -0.05,0.56 c -0.27,2.99 -0.54,2.98 -0.82,3.14 -0.84,0.28 -1.98,0.33 -3.43,0.13 -0.43,-0.04 -0.73,-0.16 -0.89,-0.37 -0.15,-0.18 -0.15,-0.34 -0.15,-0.8 0,-4.71 0.15,-8.03 0.44,-9.88 l 0.07,-0.42 -0.43,0.06 c -1.26,0.19 -2.79,0.29 -4.55,0.29 h -3.84 c 0.02,-0.95 0.22,-2.65 0.4,-3.41 0.08,-0.35 0.24,-1.03 0.38,-1.47 -1.95,0.04 -4.5,-0.28 -4.5,-0.28 l 0.08,0.39 c 0.24,1.55 0.24,2.66 0.08,4.76 h -3.57 c -2.05,0 -3.99,-0.1 -5.75,-0.3 l -0.35,-0.04 v 3.81 l 0.34,-0.04 c 1.96,-0.2 3.89,-0.29 5.75,-0.29 h 3.16 c -1.19,4.74 -5.45,7.52 -12.69,8.27 l -0.84,0.09 0.69,0.48 c 0.94,0.66 1.7,1.56 2.27,2.7 l 0.11,0.22 0.24,-0.06 c 8.18,-1.88 12.78,-5.81 13.69,-11.71 h 5.3 c -0.27,2.13 -0.4,4.81 -0.4,7.97 -0.11,1.52 0.58,2.56 2.03,3 3.29,0.7 6.75,0.72 8.78,-0.02 1.1,-0.44 1.94,-1.91 2.56,-4.52 l 0.08,-0.33 -0.33,-0.06 c -1.11,-0.14 -2.26,-0.67 -3.41,-1.53 z"
   id="path414"
   inkscape:connector-curvature="0"
   style="fill:#00125e" />
	<path
   class="st14"
   d="m 768.64,490.09 4.25,0.08 -0.02,-0.34 c 0,-0.04 -0.12,-4.02 0.05,-5.87 l 0.06,-0.38 -0.39,0.02 c 0,0 -0.79,0.04 -1.67,0.04 -0.79,0 -1.4,-0.03 -1.78,-0.1 l -0.39,-0.07 0.03,0.4 c 0.1,1.4 -0.14,6.22 -0.14,6.22 z"
   id="path416"
   inkscape:connector-curvature="0"
   style="fill:#00125e" />
	<g
   id="g426">
		<path
   class="st14"
   d="m 938.85,493.16 c -2.94,0 -4.82,-0.05 -5.59,-0.15 l -0.35,-0.04 v 3.52 l 0.35,-0.04 c 0.89,-0.1 2.78,-0.15 5.6,-0.15 h 4.6 c 3.39,0 4.06,0.08 4.39,0.14 l 0.38,0.08 v -3.56 l -0.36,0.05 c -0.67,0.1 -1.87,0.15 -4.41,0.15 z"
   id="path418"
   inkscape:connector-curvature="0"
   style="fill:#00125e" />
		<path
   class="st14"
   d="m 930.4,486.34 c 0.09,0.77 0.13,1.76 0.13,2.96 0,2 -0.17,2.88 -0.17,2.88 l 3.95,0.03 -0.04,-0.35 c -0.09,-0.79 -0.14,-1.49 -0.14,-2.54 h 13.7 c 0,0.88 -0.05,1.62 -0.14,2.7 l -0.03,0.34 h 4.02 l -0.04,-0.35 c -0.24,-1.92 -0.24,-2.52 -0.24,-2.86 0,-0.8 0,-1.77 0.09,-2.93 l 0.03,-0.38 -0.38,0.04 c -0.88,0.1 -1.62,0.15 -2.78,0.15 l -5.02,-0.01 0.14,-3.92 c 0,0 -1.5,0.04 -2,0.04 -0.58,0 -2.34,-0.01 -2.34,-0.01 l 0.01,0.32 c 0.03,0.69 0.06,1.18 0.08,1.57 0.04,0.73 0.06,1.13 0.06,2 h -5.18 c -1.06,0 -2.15,-0.05 -3.33,-0.15 l -0.43,-0.05 z"
   id="path420"
   inkscape:connector-curvature="0"
   style="fill:#00125e" />
		<path
   class="st14"
   d="m 952.42,509.46 c -0.86,-0.29 -1.91,-0.96 -3.16,-2.02 l -0.46,-0.39 -0.06,0.6 c -0.26,2.77 -1.01,4.18 -2.23,4.18 -0.07,0 -1.18,0.07 -1.64,-0.45 -0.15,-0.17 -0.18,-0.36 -0.18,-0.74 v -8.43 h 5.54 c 0.31,0 0.93,0.04 0.93,0.04 v -3.27 c 0,0 -0.05,0.05 -4.02,0.08 h -14.8 c -1.1,-0.04 -1.62,-0.09 -1.62,-0.09 v 3.31 c -0.01,-0.03 0.97,-0.06 1.12,-0.08 h 3.48 c -0.01,6.17 -3.07,9.32 -9.34,9.61 l -0.92,0.04 0.76,0.53 c 0.96,0.67 1.88,1.59 2.77,2.78 l 0.29,0.29 0.19,-0.07 c 3.7,-1.4 6.31,-2.87 7.72,-4.88 1.07,-1.86 1.73,-4.65 1.95,-8.3 h 2.5 v 9.74 c 0.04,1.17 0.11,1.73 0.6,2.26 0.56,0.62 1.49,0.87 2.76,0.93 0.21,0.01 3.49,-0.01 3.49,-0.01 2.41,-0.13 3.85,-1.79 4.54,-5.31 l 0.05,-0.27 z"
   id="path422"
   inkscape:connector-curvature="0"
   style="fill:#00125e" />
		<path
   class="st14"
   d="m 929.44,486.34 0.22,-0.65 c 0.27,-0.74 0.31,-0.89 0.6,-1.52 l 0.39,-0.92 -0.61,0.12 c -0.96,0.19 -2.26,0.28 -4.02,0.28 h -3.08 c -1.66,0 -2.98,-0.1 -3.94,-0.29 l -0.48,-0.1 0.12,0.48 c 0.19,0.77 0.29,1.89 0.29,3.34 v 24.61 c 0,1.35 -0.05,2.59 -0.15,3.67 l -0.03,0.34 h 3.95 l -0.03,-0.34 c -0.1,-1.06 -0.15,-2.35 -0.15,-3.83 V 486.5 h 3.37 c -1.4,4.28 -1.97,7.38 -2.64,9.21 l -0.07,0.19 0.14,0.14 c 2.01,2.01 2.81,4.18 2.9,6.48 0.06,0.76 -0.07,1.33 -0.4,1.69 -0.57,0.62 -1.11,0.97 -2.89,0.6 0.7,1.17 0.94,2.59 0.86,3.91 l -0.02,0.37 0.37,-0.04 c 3.91,-0.41 5.62,-2.27 5.83,-5.51 0,-2.39 -0.82,-5.15 -2.96,-8.21 0.58,-2.21 0.87,-4.1 1.55,-6.24 0.28,-0.98 0.57,-1.9 0.88,-2.75 z"
   id="path424"
   inkscape:connector-curvature="0"
   style="fill:#00125e" />
	</g>
	<linearGradient
   id="SVGID_15_"
   gradientUnits="userSpaceOnUse"
   x1="394.67239"
   y1="528.70221"
   x2="500.66751"
   y2="528.70221">
		<stop
   offset="0.4242"
   style="stop-color:#00125E"
   id="stop428" />
		<stop
   offset="0.508"
   style="stop-color:#001E68"
   id="stop430" />
		<stop
   offset="0.673"
   style="stop-color:#003782"
   id="stop432" />
		<stop
   offset="0.897"
   style="stop-color:#005BAC"
   id="stop434" />
	</linearGradient>
	<path
   class="st15"
   d="m 498.23,528.7 c -4.7,-4.09 -9.05,-3.82 -9.05,-3.82 h -94.51 v 7.64 h 93.48 v 0.01 c 0,0 2.79,0 6.2,-0.01 0.02,0 0.04,0 0.06,0 5.07,-0.08 6.17,-1.95 6.25,-2.1 -1.39,-0.89 -2.43,-1.72 -2.43,-1.72 z"
   id="path437"
   inkscape:connector-curvature="0"
   style="fill:url(#SVGID_15_)" />
	<linearGradient
   id="SVGID_16_"
   gradientUnits="userSpaceOnUse"
   x1="495.939"
   y1="528.72717"
   x2="611.02539"
   y2="528.72717">
		<stop
   offset="0"
   style="stop-color:#F7B02D"
   id="stop439" />
		<stop
   offset="0.2968"
   style="stop-color:#F08406"
   id="stop441" />
		<stop
   offset="0.4667"
   style="stop-color:#ED6C00"
   id="stop443" />
	</linearGradient>
	<path
   class="st16"
   d="m 507.42,524.91 v 0 c -1.02,0 -2.71,-0.01 -4.64,-0.02 -0.21,0.01 -0.45,0.02 -0.72,0.02 -5.06,0.08 -6.04,1.95 -6.12,2.09 1.47,1.01 2.41,1.78 2.41,1.78 5.03,4.02 9.08,3.77 9.08,3.77 h 103.6 V 524.9 H 507.42 Z"
   id="path446"
   inkscape:connector-curvature="0"
   style="fill:url(#SVGID_16_)" />
	<linearGradient
   id="SVGID_17_"
   gradientUnits="userSpaceOnUse"
   x1="401.52649"
   y1="511.19379"
   x2="443.98511"
   y2="460.59369">
		<stop
   offset="0.3758"
   style="stop-color:#00125E"
   id="stop448" />
		<stop
   offset="0.4817"
   style="stop-color:#002771"
   id="stop450" />
		<stop
   offset="0.6418"
   style="stop-color:#003E8A"
   id="stop452" />
		<stop
   offset="0.7871"
   style="stop-color:#004E9D"
   id="stop454" />
		<stop
   offset="0.9114"
   style="stop-color:#0058A8"
   id="stop456" />
		<stop
   offset="1"
   style="stop-color:#005BAC"
   id="stop458" />
	</linearGradient>
	<path
   class="st17"
   d="m 434.34,503.75 -4.66,11.84 c 0,0 -11.84,1.6 -19.93,-0.68 -8.21,-2.31 -10.97,-5.26 -13.83,-11.72 -1.27,-2.86 -1.99,-7.29 -1.99,-10.91 0,-4.24 0.75,-8.04 2.26,-11.43 1.51,-3.38 6.7,-11.08 15.98,-13.88 3.35,-1.01 6.83,-1.58 10.42,-1.58 3.3,0 15.97,0.65 27.06,-0.04 l -5.22,13.25 c -7.26,0.54 -18.96,-0.43 -20.83,-0.3 -3.58,0.26 -5.49,0.53 -7.9,1.79 -2.41,1.26 -4.25,2.73 -5.7,5.1 -3.71,6.05 -1.26,12.26 0.16,14.02 1.4,1.74 4.84,4.86 12.18,5.32 2.31,0.14 12,-0.78 12,-0.78 z"
   id="path461"
   inkscape:connector-curvature="0"
   style="fill:url(#SVGID_17_)" />
	<linearGradient
   id="SVGID_18_"
   gradientUnits="userSpaceOnUse"
   x1="529.27448"
   y1="511.02841"
   x2="565.02258"
   y2="468.42551">
		<stop
   offset="0.3273"
   style="stop-color:#00125E"
   id="stop463" />
		<stop
   offset="0.4415"
   style="stop-color:#002771"
   id="stop465" />
		<stop
   offset="0.6139"
   style="stop-color:#003E8A"
   id="stop467" />
		<stop
   offset="0.7705"
   style="stop-color:#004E9D"
   id="stop469" />
		<stop
   offset="0.9045"
   style="stop-color:#0058A8"
   id="stop471" />
		<stop
   offset="1"
   style="stop-color:#005BAC"
   id="stop473" />
	</linearGradient>
	<path
   class="st18"
   d="m 560.62,503.2 -0.04,12.08 c 0,0 -10.39,0.8 -14.13,0.8 -3.62,0 -6.98,-0.49 -10.09,-1.46 -3.11,-0.98 -5.96,-2.58 -8.56,-4.81 -2.6,-2.23 -4.45,-4.85 -5.57,-7.87 -1.12,-3.01 -1.68,-6.39 -1.68,-10.13 0,-4.37 0.52,-8.87 2.03,-12.36 1.51,-3.48 4.49,-10.34 14.74,-13.45 6.4,-1.95 12.73,-1.08 23.6,-0.99 l -0.04,12.69 c -8.92,-0.17 -15.52,-1.06 -19.62,1.64 -9.91,6.51 -6.37,17.21 -4.48,19.62 1.41,1.79 4.98,4.98 11.96,5.12 2.32,0.02 11.88,-0.88 11.88,-0.88 z"
   id="path476"
   inkscape:connector-curvature="0"
   style="fill:url(#SVGID_18_)" />
	<linearGradient
   id="SVGID_19_"
   gradientUnits="userSpaceOnUse"
   x1="446.38461"
   y1="524.79791"
   x2="486.56741"
   y2="476.91">
		<stop
   offset="0.4424"
   style="stop-color:#00125E"
   id="stop478" />
		<stop
   offset="0.6087"
   style="stop-color:#002D77"
   id="stop480" />
		<stop
   offset="0.8738"
   style="stop-color:#004E9D"
   id="stop482" />
		<stop
   offset="1"
   style="stop-color:#005BAC"
   id="stop484" />
	</linearGradient>
	<path
   class="st19"
   d="m 435.88,515.98 2.32,-5.32 14.24,-35.96 1.5,-4.02 c 0.44,-1.18 1.03,-2.88 1.81,-5.1 3.93,0.05 6.79,0.08 8.6,0.08 3.14,0 6.05,-0.03 8.72,-0.08 l 6.19,15.4 12.45,29.61 2.4,5.39 c -3.87,-0.05 -6.21,-0.07 -7.04,-0.07 -1.87,0 -4.63,0.03 -8.26,0.07 -1.33,-4.06 -3.15,-8.84 -5.46,-14.32 h -16.84 c -1.57,4.33 -3.17,9.11 -4.79,14.32 -4.16,-0.05 -6.7,-0.07 -7.64,-0.07 -1.7,0 -4.44,0.02 -8.2,0.07 z m 23.76,-25.07 h 10.39 c -3.32,-8.67 -5.14,-13.45 -5.46,-14.34 -1.16,3.61 -2.16,6.57 -2.99,8.88 z"
   id="path487"
   inkscape:connector-curvature="0"
   style="fill:url(#SVGID_19_)" />
	<linearGradient
   id="SVGID_20_"
   gradientUnits="userSpaceOnUse"
   x1="491.15799"
   y1="509.51071"
   x2="521.60779"
   y2="473.22198">
		<stop
   offset="0.3758"
   style="stop-color:#00125E"
   id="stop489" />
		<stop
   offset="0.4817"
   style="stop-color:#002771"
   id="stop491" />
		<stop
   offset="0.6418"
   style="stop-color:#003E8A"
   id="stop493" />
		<stop
   offset="0.7871"
   style="stop-color:#004E9D"
   id="stop495" />
		<stop
   offset="0.9114"
   style="stop-color:#0058A8"
   id="stop497" />
		<stop
   offset="1"
   style="stop-color:#005BAC"
   id="stop499" />
	</linearGradient>
	<path
   class="st20"
   d="m 498.77,515.9 c 0,0 0.27,-18.33 0.27,-24.44 0,-6.17 -0.26,-24.65 -0.26,-24.65 3.9,0.05 15.2,0.02 15.2,0.02 l -0.35,24.54 0.35,24.53 -6.85,-0.07 c -1.33,0 -8.36,0.07 -8.36,0.07 z"
   id="path502"
   inkscape:connector-curvature="0"
   style="fill:url(#SVGID_20_)" />
	<linearGradient
   id="SVGID_21_"
   gradientUnits="userSpaceOnUse"
   x1="568.54413"
   y1="505.3432"
   x2="605.99182"
   y2="460.71481">
		<stop
   offset="0.303"
   style="stop-color:#00125E"
   id="stop504" />
		<stop
   offset="0.4214"
   style="stop-color:#002771"
   id="stop506" />
		<stop
   offset="0.6"
   style="stop-color:#003E8A"
   id="stop508" />
		<stop
   offset="0.7623"
   style="stop-color:#004E9D"
   id="stop510" />
		<stop
   offset="0.901"
   style="stop-color:#0058A8"
   id="stop512" />
		<stop
   offset="1"
   style="stop-color:#005BAC"
   id="stop514" />
	</linearGradient>
	<path
   class="st21"
   d="m 581.11,515.89 c 0,0 0.24,-24.18 0.46,-38.27 l -14.89,0.07 -0.06,-13.17 c 0,0 14.84,0.06 23.27,0.06 l 8.26,-0.04 h 8.03 l 4.34,-0.04 c 0,0 0.07,12.6 0.07,13.23 -4.77,-0.27 -14.69,-0.12 -14.69,-0.12 -0.34,4.26 -0.01,38.27 -0.01,38.27 h -14.78 z"
   id="path517"
   inkscape:connector-curvature="0"
   style="fill:url(#SVGID_21_)" />
	<path
   class="st14"
   d="m 656.08,533.38 h -1.17 l -0.84,-2.26 h -3.43 l -0.79,2.26 h -1.17 l 3.13,-8.25 h 1.13 z m -2.34,-3.19 -1.24,-3.43 c -0.04,-0.11 -0.08,-0.3 -0.13,-0.58 h -0.03 c -0.04,0.25 -0.08,0.44 -0.13,0.58 l -1.23,3.43 z"
   id="path519"
   inkscape:connector-curvature="0"
   style="fill:#00125e" />
	<path
   class="st14"
   d="m 661.19,533.11 c -0.45,0.27 -0.99,0.4 -1.62,0.4 -0.85,0 -1.53,-0.27 -2.05,-0.82 -0.52,-0.55 -0.78,-1.25 -0.78,-2.12 0,-0.96 0.28,-1.75 0.84,-2.34 0.56,-0.59 1.3,-0.89 2.24,-0.89 0.54,0 1,0.09 1.38,0.29 v 1.04 c -0.41,-0.31 -0.88,-0.46 -1.38,-0.46 -0.59,0 -1.08,0.21 -1.45,0.62 -0.37,0.41 -0.56,0.97 -0.56,1.65 0,0.68 0.18,1.21 0.53,1.59 0.35,0.39 0.83,0.58 1.42,0.58 0.51,0 0.99,-0.17 1.44,-0.5 v 0.96 z"
   id="path521"
   inkscape:connector-curvature="0"
   style="fill:#00125e" />
	<path
   class="st14"
   d="m 662.73,527.9 c 0.59,-0.37 1.26,-0.55 2.03,-0.55 1.41,0 2.12,0.75 2.12,2.24 v 3.79 h -1.03 v -0.91 h -0.03 c -0.41,0.7 -1.01,1.05 -1.8,1.05 -0.57,0 -1.02,-0.15 -1.36,-0.46 -0.34,-0.31 -0.5,-0.72 -0.5,-1.25 0,-1.1 0.65,-1.74 1.95,-1.92 l 1.74,-0.24 c 0,-0.96 -0.39,-1.44 -1.19,-1.44 -0.71,0 -1.35,0.24 -1.93,0.71 z m 1.74,2.71 c -0.48,0.06 -0.81,0.18 -0.99,0.36 -0.19,0.18 -0.28,0.42 -0.28,0.74 0,0.28 0.1,0.51 0.29,0.69 0.2,0.18 0.46,0.27 0.79,0.27 0.45,0 0.83,-0.16 1.12,-0.48 0.29,-0.32 0.44,-0.72 0.44,-1.2 v -0.56 z"
   id="path523"
   inkscape:connector-curvature="0"
   style="fill:#00125e" />
	<path
   class="st14"
   d="m 673.7,533.38 h -1.04 v -0.98 h -0.02 c -0.43,0.75 -1.09,1.12 -2,1.12 -0.74,0 -1.33,-0.27 -1.77,-0.8 -0.44,-0.53 -0.66,-1.25 -0.66,-2.15 0,-0.97 0.25,-1.75 0.74,-2.34 0.49,-0.59 1.14,-0.88 1.94,-0.88 0.8,0 1.38,0.31 1.74,0.94 h 0.02 v -3.62 h 1.04 v 8.71 z m -1.03,-3.5 c 0,-0.47 -0.15,-0.87 -0.47,-1.18 -0.31,-0.32 -0.69,-0.48 -1.14,-0.48 -0.55,0 -0.98,0.21 -1.31,0.62 -0.32,0.41 -0.48,0.98 -0.48,1.69 0,0.66 0.16,1.17 0.46,1.56 0.31,0.38 0.71,0.57 1.22,0.57 0.5,0 0.92,-0.19 1.23,-0.56 0.32,-0.37 0.48,-0.84 0.48,-1.4 v -0.82 z"
   id="path525"
   inkscape:connector-curvature="0"
   style="fill:#00125e" />
	<path
   class="st14"
   d="m 680.34,530.7 h -4.11 c 0.02,0.63 0.19,1.11 0.51,1.46 0.33,0.34 0.78,0.51 1.37,0.51 0.66,0 1.26,-0.21 1.81,-0.63 v 0.93 c -0.52,0.37 -1.2,0.55 -2.06,0.55 -0.85,0 -1.51,-0.27 -1.99,-0.81 -0.48,-0.54 -0.71,-1.29 -0.71,-2.25 0,-0.9 0.26,-1.64 0.78,-2.23 0.53,-0.59 1.17,-0.88 1.95,-0.88 0.77,0 1.37,0.25 1.8,0.75 0.43,0.49 0.65,1.19 0.65,2.08 z m -1.04,-0.84 c 0,-0.53 -0.13,-0.94 -0.38,-1.23 -0.25,-0.29 -0.6,-0.44 -1.05,-0.44 -0.42,0 -0.77,0.15 -1.08,0.46 -0.3,0.31 -0.49,0.71 -0.57,1.21 z"
   id="path527"
   inkscape:connector-curvature="0"
   style="fill:#00125e" />
	<path
   class="st14"
   d="m 690.18,533.38 h -1.04 V 530 c 0,-0.64 -0.1,-1.1 -0.3,-1.37 -0.2,-0.27 -0.52,-0.41 -0.97,-0.41 -0.38,0 -0.71,0.18 -0.98,0.54 -0.27,0.36 -0.41,0.78 -0.41,1.27 v 3.36 h -1.04 v -3.49 c 0,-1.12 -0.43,-1.68 -1.29,-1.68 -0.39,0 -0.72,0.17 -0.98,0.51 -0.26,0.34 -0.39,0.77 -0.39,1.3 v 3.35 h -1.04 v -5.89 h 1.04 v 0.93 h 0.02 c 0.42,-0.71 1.03,-1.07 1.84,-1.07 0.39,0 0.74,0.11 1.04,0.33 0.3,0.22 0.51,0.51 0.62,0.88 0.44,-0.8 1.09,-1.2 1.96,-1.2 1.29,0 1.94,0.8 1.94,2.4 v 3.62 z"
   id="path529"
   inkscape:connector-curvature="0"
   style="fill:#00125e" />
	<path
   class="st14"
   d="m 696.7,527.49 -2.67,6.77 c -0.49,1.26 -1.2,1.88 -2.09,1.88 -0.26,0 -0.48,-0.03 -0.67,-0.08 v -0.92 c 0.2,0.08 0.4,0.12 0.59,0.12 0.47,0 0.82,-0.28 1.06,-0.83 l 0.45,-1.07 -2.3,-5.87 h 1.15 l 1.53,4.42 0.13,0.48 h 0.03 c 0.02,-0.11 0.06,-0.27 0.12,-0.47 l 1.61,-4.43 z"
   id="path531"
   inkscape:connector-curvature="0"
   style="fill:#00125e" />
	<path
   class="st14"
   d="m 700.5,530.49 c 0,-0.97 0.27,-1.74 0.81,-2.3 0.54,-0.56 1.28,-0.84 2.2,-0.84 0.88,0 1.57,0.27 2.07,0.81 0.5,0.54 0.75,1.29 0.75,2.24 0,0.93 -0.27,1.68 -0.8,2.25 -0.53,0.57 -1.25,0.86 -2.15,0.86 -0.88,0 -1.58,-0.28 -2.1,-0.83 -0.52,-0.55 -0.78,-1.28 -0.78,-2.19 z m 1.06,-0.03 c 0,0.68 0.17,1.21 0.51,1.6 0.34,0.39 0.8,0.58 1.38,0.58 0.6,0 1.05,-0.19 1.36,-0.57 0.31,-0.38 0.46,-0.93 0.46,-1.64 0,-0.72 -0.16,-1.27 -0.46,-1.65 -0.31,-0.38 -0.77,-0.58 -1.36,-0.58 -0.58,0 -1.04,0.2 -1.38,0.6 -0.33,0.42 -0.51,0.97 -0.51,1.66 z"
   id="path533"
   inkscape:connector-curvature="0"
   style="fill:#00125e" />
	<path
   class="st14"
   d="m 710.61,525.55 c -0.19,-0.11 -0.4,-0.16 -0.63,-0.16 -0.65,0 -0.98,0.4 -0.98,1.21 v 0.88 h 1.38 v 0.86 H 709 v 5.03 h -1.03 v -5.03 h -1 v -0.86 h 1 v -0.93 c 0,-0.63 0.18,-1.13 0.54,-1.49 0.37,-0.36 0.82,-0.54 1.38,-0.54 0.29,0 0.53,0.04 0.71,0.1 v 0.93 z"
   id="path535"
   inkscape:connector-curvature="0"
   style="fill:#00125e" />
	<path
   class="st14"
   d="m 716.57,526.03 h -0.79 v 6.44 h 0.79 v 0.9 h -2.65 v -0.9 h 0.79 v -6.44 h -0.79 v -0.9 h 2.65 z"
   id="path537"
   inkscape:connector-curvature="0"
   style="fill:#00125e" />
	<path
   class="st14"
   d="m 722.75,533.38 h -1.04 v -3.35 c 0,-1.21 -0.44,-1.82 -1.33,-1.82 -0.45,0 -0.83,0.17 -1.12,0.51 -0.29,0.34 -0.44,0.77 -0.44,1.29 v 3.36 h -1.04 v -5.89 h 1.04 v 0.97 h 0.02 c 0.44,-0.75 1.09,-1.11 1.93,-1.11 0.64,0 1.13,0.21 1.47,0.62 0.34,0.41 0.51,1.02 0.51,1.81 z"
   id="path539"
   inkscape:connector-curvature="0"
   style="fill:#00125e" />
	<path
   class="st14"
   d="m 727.5,525.55 c -0.19,-0.11 -0.4,-0.16 -0.63,-0.16 -0.65,0 -0.97,0.4 -0.97,1.21 v 0.88 h 1.37 v 0.86 h -1.37 v 5.03 h -1.03 v -5.03 h -1 v -0.86 h 1 v -0.93 c 0,-0.63 0.18,-1.13 0.54,-1.49 0.36,-0.36 0.83,-0.54 1.38,-0.54 0.3,0 0.54,0.04 0.71,0.1 z"
   id="path541"
   inkscape:connector-curvature="0"
   style="fill:#00125e" />
	<path
   class="st14"
   d="m 727.86,530.49 c 0,-0.97 0.27,-1.74 0.81,-2.3 0.54,-0.56 1.28,-0.84 2.21,-0.84 0.88,0 1.57,0.27 2.07,0.81 0.5,0.54 0.75,1.29 0.75,2.24 0,0.93 -0.27,1.68 -0.8,2.25 -0.53,0.57 -1.25,0.86 -2.15,0.86 -0.88,0 -1.58,-0.28 -2.1,-0.83 -0.53,-0.55 -0.79,-1.28 -0.79,-2.19 z m 1.07,-0.03 c 0,0.68 0.17,1.21 0.51,1.6 0.34,0.39 0.8,0.58 1.38,0.58 0.6,0 1.04,-0.19 1.36,-0.57 0.31,-0.38 0.46,-0.93 0.46,-1.64 0,-0.72 -0.15,-1.27 -0.46,-1.65 -0.31,-0.38 -0.76,-0.58 -1.36,-0.58 -0.58,0 -1.04,0.2 -1.38,0.6 -0.35,0.42 -0.51,0.97 -0.51,1.66 z"
   id="path543"
   inkscape:connector-curvature="0"
   style="fill:#00125e" />
	<path
   class="st14"
   d="m 738.32,528.52 c -0.18,-0.12 -0.41,-0.19 -0.72,-0.19 -0.4,0 -0.74,0.19 -1,0.57 -0.27,0.38 -0.39,0.88 -0.39,1.49 v 2.98 h -1.04 v -5.89 h 1.04 v 1.2 h 0.02 c 0.3,-0.87 0.81,-1.3 1.54,-1.3 0.24,0 0.42,0.03 0.55,0.08 z"
   id="path545"
   inkscape:connector-curvature="0"
   style="fill:#00125e" />
	<path
   class="st14"
   d="m 747.76,533.38 h -1.04 V 530 c 0,-0.64 -0.1,-1.1 -0.3,-1.37 -0.2,-0.27 -0.52,-0.41 -0.97,-0.41 -0.38,0 -0.71,0.18 -0.98,0.54 -0.27,0.36 -0.41,0.78 -0.41,1.27 v 3.36 h -1.04 v -3.49 c 0,-1.12 -0.43,-1.68 -1.29,-1.68 -0.4,0 -0.72,0.17 -0.98,0.51 -0.26,0.34 -0.39,0.77 -0.39,1.3 v 3.35 h -1.04 v -5.89 h 1.04 v 0.93 h 0.02 c 0.42,-0.71 1.03,-1.07 1.83,-1.07 0.39,0 0.74,0.11 1.04,0.33 0.3,0.22 0.51,0.51 0.63,0.88 0.44,-0.8 1.09,-1.2 1.95,-1.2 1.29,0 1.94,0.8 1.94,2.4 v 3.62 z"
   id="path547"
   inkscape:connector-curvature="0"
   style="fill:#00125e" />
	<path
   class="st14"
   d="m 749.63,527.9 c 0.58,-0.37 1.26,-0.55 2.03,-0.55 1.41,0 2.12,0.75 2.12,2.24 v 3.79 h -1.03 v -0.91 h -0.03 c -0.41,0.7 -1.01,1.05 -1.8,1.05 -0.57,0 -1.02,-0.15 -1.36,-0.46 -0.34,-0.31 -0.51,-0.72 -0.51,-1.25 0,-1.1 0.65,-1.74 1.95,-1.92 l 1.74,-0.24 c 0,-0.96 -0.4,-1.44 -1.19,-1.44 -0.71,0 -1.35,0.24 -1.93,0.71 v -1.02 z m 1.74,2.71 c -0.48,0.06 -0.81,0.18 -1,0.36 -0.18,0.18 -0.27,0.42 -0.27,0.74 0,0.28 0.1,0.51 0.3,0.69 0.2,0.18 0.46,0.27 0.78,0.27 0.46,0 0.83,-0.16 1.12,-0.48 0.29,-0.32 0.44,-0.72 0.44,-1.2 v -0.56 z"
   id="path549"
   inkscape:connector-curvature="0"
   style="fill:#00125e" />
	<path
   class="st14"
   d="m 758.32,533.32 c -0.22,0.12 -0.54,0.19 -0.92,0.19 -1.05,0 -1.57,-0.58 -1.57,-1.75 v -3.4 h -1.01 v -0.86 h 1.01 v -1.42 l 1.04,-0.33 v 1.75 h 1.46 v 0.86 h -1.46 v 3.22 c 0,0.38 0.06,0.66 0.2,0.83 0.13,0.17 0.35,0.25 0.65,0.25 0.23,0 0.44,-0.07 0.61,-0.2 v 0.86 z"
   id="path551"
   inkscape:connector-curvature="0"
   style="fill:#00125e" />
	<path
   class="st14"
   d="m 759.43,525.41 c 0,-0.18 0.06,-0.34 0.19,-0.46 0.12,-0.12 0.28,-0.19 0.46,-0.19 0.19,0 0.34,0.06 0.48,0.19 0.12,0.12 0.19,0.28 0.19,0.46 0,0.19 -0.06,0.34 -0.19,0.46 -0.13,0.12 -0.29,0.18 -0.48,0.18 -0.19,0 -0.35,-0.06 -0.47,-0.18 -0.12,-0.12 -0.18,-0.27 -0.18,-0.46 z m 0.12,7.97 v -5.89 h 1.04 v 5.89 z"
   id="path553"
   inkscape:connector-curvature="0"
   style="fill:#00125e" />
	<path
   class="st14"
   d="m 762.06,530.49 c 0,-0.97 0.27,-1.74 0.81,-2.3 0.54,-0.56 1.28,-0.84 2.2,-0.84 0.88,0 1.58,0.27 2.08,0.81 0.5,0.54 0.75,1.29 0.75,2.24 0,0.93 -0.27,1.68 -0.81,2.25 -0.53,0.57 -1.25,0.86 -2.15,0.86 -0.88,0 -1.58,-0.28 -2.1,-0.83 -0.52,-0.55 -0.78,-1.28 -0.78,-2.19 z m 1.06,-0.03 c 0,0.68 0.17,1.21 0.51,1.6 0.34,0.39 0.8,0.58 1.38,0.58 0.59,0 1.04,-0.19 1.36,-0.57 0.31,-0.38 0.47,-0.93 0.47,-1.64 0,-0.72 -0.15,-1.27 -0.47,-1.65 -0.31,-0.38 -0.77,-0.58 -1.36,-0.58 -0.59,0 -1.05,0.2 -1.38,0.6 -0.34,0.42 -0.51,0.97 -0.51,1.66 z"
   id="path555"
   inkscape:connector-curvature="0"
   style="fill:#00125e" />
	<path
   class="st14"
   d="m 774.33,533.38 h -1.04 v -3.35 c 0,-1.21 -0.44,-1.82 -1.32,-1.82 -0.46,0 -0.83,0.17 -1.13,0.51 -0.29,0.34 -0.44,0.77 -0.44,1.29 v 3.36 h -1.04 v -5.89 h 1.04 v 0.97 h 0.02 c 0.45,-0.75 1.09,-1.11 1.93,-1.11 0.64,0 1.13,0.21 1.47,0.62 0.34,0.41 0.5,1.02 0.5,1.81 v 3.61 z"
   id="path557"
   inkscape:connector-curvature="0"
   style="fill:#00125e" />
	<g
   id="g607">
		<path
   class="st14"
   d="m 807.39,533.03 c -0.6,0.32 -1.36,0.48 -2.28,0.48 -1.18,0 -2.12,-0.37 -2.83,-1.13 -0.7,-0.75 -1.05,-1.74 -1.05,-2.98 0,-1.33 0.39,-2.39 1.19,-3.2 0.79,-0.81 1.8,-1.21 3.02,-1.21 0.78,0 1.44,0.12 1.95,0.34 v 1.11 c -0.59,-0.33 -1.23,-0.49 -1.94,-0.49 -0.91,0 -1.66,0.31 -2.24,0.92 -0.58,0.61 -0.87,1.44 -0.87,2.48 0,0.99 0.27,1.77 0.81,2.35 0.54,0.58 1.24,0.87 2.11,0.87 0.81,0 1.53,-0.18 2.12,-0.55 v 1.01 z"
   id="path559"
   inkscape:connector-curvature="0"
   style="fill:#00125e" />
		<path
   class="st14"
   d="m 808.51,530.49 c 0,-0.97 0.27,-1.74 0.81,-2.3 0.54,-0.56 1.28,-0.84 2.21,-0.84 0.88,0 1.57,0.27 2.07,0.81 0.5,0.54 0.75,1.29 0.75,2.24 0,0.93 -0.27,1.68 -0.8,2.25 -0.54,0.57 -1.25,0.86 -2.15,0.86 -0.88,0 -1.58,-0.27 -2.1,-0.83 -0.53,-0.55 -0.79,-1.28 -0.79,-2.19 z m 1.06,-0.03 c 0,0.68 0.17,1.21 0.51,1.6 0.34,0.39 0.8,0.58 1.38,0.58 0.6,0 1.05,-0.19 1.36,-0.57 0.31,-0.38 0.47,-0.93 0.47,-1.64 0,-0.72 -0.16,-1.27 -0.47,-1.65 -0.31,-0.38 -0.76,-0.57 -1.36,-0.57 -0.58,0 -1.04,0.2 -1.38,0.6 -0.34,0.41 -0.51,0.96 -0.51,1.65 z"
   id="path561"
   inkscape:connector-curvature="0"
   style="fill:#00125e" />
		<path
   class="st14"
   d="m 824.27,533.37 h -1.04 V 530 c 0,-0.64 -0.1,-1.1 -0.29,-1.37 -0.2,-0.28 -0.53,-0.41 -0.98,-0.41 -0.38,0 -0.71,0.18 -0.98,0.54 -0.28,0.36 -0.41,0.78 -0.41,1.27 v 3.35 h -1.04 v -3.48 c 0,-1.12 -0.43,-1.68 -1.29,-1.68 -0.4,0 -0.72,0.17 -0.98,0.51 -0.26,0.34 -0.39,0.77 -0.39,1.3 v 3.35 h -1.04 v -5.88 h 1.04 v 0.93 h 0.02 c 0.42,-0.71 1.03,-1.07 1.83,-1.07 0.4,0 0.74,0.11 1.04,0.33 0.3,0.21 0.51,0.51 0.63,0.88 0.44,-0.8 1.08,-1.2 1.95,-1.2 1.29,0 1.94,0.8 1.94,2.4 v 3.6 z"
   id="path563"
   inkscape:connector-curvature="0"
   style="fill:#00125e" />
		<path
   class="st14"
   d="m 834.46,533.37 h -1.04 V 530 c 0,-0.64 -0.1,-1.1 -0.3,-1.37 -0.2,-0.28 -0.53,-0.41 -0.98,-0.41 -0.38,0 -0.71,0.18 -0.98,0.54 -0.27,0.36 -0.41,0.78 -0.41,1.27 v 3.35 h -1.04 v -3.48 c 0,-1.12 -0.43,-1.68 -1.29,-1.68 -0.4,0 -0.73,0.17 -0.99,0.51 -0.26,0.34 -0.39,0.77 -0.39,1.3 v 3.35 H 826 v -5.88 h 1.04 v 0.93 h 0.02 c 0.42,-0.71 1.03,-1.07 1.83,-1.07 0.39,0 0.74,0.11 1.04,0.33 0.3,0.21 0.51,0.51 0.63,0.88 0.44,-0.8 1.09,-1.2 1.95,-1.2 1.29,0 1.94,0.8 1.94,2.4 v 3.6 z"
   id="path565"
   inkscape:connector-curvature="0"
   style="fill:#00125e" />
		<path
   class="st14"
   d="M 841.05,533.37 H 840 v -0.92 h -0.02 c -0.39,0.71 -0.99,1.06 -1.81,1.06 -1.39,0 -2.09,-0.83 -2.09,-2.5 v -3.52 h 1.03 v 3.37 c 0,1.2 0.46,1.79 1.37,1.79 0.46,0 0.82,-0.17 1.1,-0.5 0.28,-0.34 0.42,-0.76 0.42,-1.27 v -3.39 h 1.04 v 5.88 z"
   id="path567"
   inkscape:connector-curvature="0"
   style="fill:#00125e" />
		<path
   class="st14"
   d="m 847.87,533.37 h -1.04 v -3.35 c 0,-1.21 -0.44,-1.81 -1.32,-1.81 -0.46,0 -0.83,0.17 -1.12,0.51 -0.29,0.34 -0.44,0.77 -0.44,1.29 v 3.36 h -1.04 v -5.88 h 1.04 v 0.97 h 0.02 c 0.45,-0.75 1.09,-1.11 1.93,-1.11 0.64,0 1.13,0.21 1.47,0.62 0.33,0.41 0.5,1.01 0.5,1.81 z"
   id="path569"
   inkscape:connector-curvature="0"
   style="fill:#00125e" />
		<path
   class="st14"
   d="m 849.48,525.41 c 0,-0.18 0.06,-0.34 0.19,-0.46 0.12,-0.12 0.28,-0.19 0.46,-0.19 0.19,0 0.35,0.06 0.48,0.19 0.13,0.12 0.19,0.28 0.19,0.46 0,0.19 -0.06,0.34 -0.19,0.46 -0.13,0.12 -0.29,0.18 -0.48,0.18 -0.19,0 -0.34,-0.06 -0.46,-0.18 -0.13,-0.12 -0.19,-0.27 -0.19,-0.46 z m 0.12,7.96 v -5.88 h 1.05 v 5.88 z"
   id="path571"
   inkscape:connector-curvature="0"
   style="fill:#00125e" />
		<path
   class="st14"
   d="m 856.55,533.11 c -0.45,0.27 -0.99,0.4 -1.62,0.4 -0.85,0 -1.53,-0.27 -2.05,-0.82 -0.52,-0.55 -0.78,-1.25 -0.78,-2.13 0,-0.96 0.28,-1.74 0.83,-2.33 0.56,-0.59 1.31,-0.89 2.24,-0.89 0.54,0 1,0.09 1.38,0.29 v 1.03 c -0.41,-0.3 -0.88,-0.46 -1.38,-0.46 -0.6,0 -1.08,0.21 -1.45,0.62 -0.38,0.41 -0.56,0.97 -0.56,1.65 0,0.68 0.18,1.21 0.53,1.59 0.35,0.39 0.83,0.58 1.42,0.58 0.51,0 0.98,-0.17 1.44,-0.5 z"
   id="path573"
   inkscape:connector-curvature="0"
   style="fill:#00125e" />
		<path
   class="st14"
   d="m 858.09,527.9 c 0.58,-0.37 1.26,-0.55 2.02,-0.55 1.41,0 2.12,0.75 2.12,2.24 v 3.79 h -1.03 v -0.91 h -0.03 c -0.4,0.7 -1,1.05 -1.8,1.05 -0.57,0 -1.02,-0.15 -1.36,-0.46 -0.33,-0.31 -0.51,-0.72 -0.51,-1.25 0,-1.1 0.65,-1.74 1.95,-1.92 l 1.75,-0.25 c 0,-0.96 -0.4,-1.44 -1.19,-1.44 -0.7,0 -1.35,0.24 -1.93,0.71 v -1.01 z m 1.74,2.71 c -0.48,0.06 -0.81,0.18 -0.99,0.36 -0.18,0.18 -0.28,0.42 -0.28,0.74 0,0.28 0.1,0.51 0.3,0.69 0.2,0.18 0.46,0.27 0.78,0.27 0.46,0 0.83,-0.16 1.12,-0.48 0.29,-0.32 0.45,-0.72 0.45,-1.2 v -0.56 z"
   id="path575"
   inkscape:connector-curvature="0"
   style="fill:#00125e" />
		<path
   class="st14"
   d="m 866.78,533.32 c -0.23,0.12 -0.53,0.19 -0.92,0.19 -1.05,0 -1.58,-0.58 -1.58,-1.75 v -3.4 h -1.01 v -0.86 h 1.01 v -1.42 l 1.04,-0.33 v 1.75 h 1.46 v 0.86 h -1.46 v 3.21 c 0,0.39 0.06,0.67 0.2,0.83 0.13,0.17 0.35,0.25 0.65,0.25 0.23,0 0.44,-0.07 0.61,-0.2 z"
   id="path577"
   inkscape:connector-curvature="0"
   style="fill:#00125e" />
		<path
   class="st14"
   d="m 867.89,525.41 c 0,-0.18 0.06,-0.34 0.19,-0.46 0.13,-0.12 0.28,-0.19 0.46,-0.19 0.19,0 0.35,0.06 0.48,0.19 0.13,0.12 0.2,0.28 0.2,0.46 0,0.19 -0.07,0.34 -0.2,0.46 -0.13,0.12 -0.29,0.18 -0.48,0.18 -0.19,0 -0.34,-0.06 -0.46,-0.18 -0.13,-0.12 -0.19,-0.27 -0.19,-0.46 z m 0.12,7.96 v -5.88 h 1.04 v 5.88 z"
   id="path579"
   inkscape:connector-curvature="0"
   style="fill:#00125e" />
		<path
   class="st14"
   d="m 870.51,530.49 c 0,-0.97 0.27,-1.74 0.82,-2.3 0.54,-0.56 1.28,-0.84 2.2,-0.84 0.88,0 1.57,0.27 2.08,0.81 0.5,0.54 0.75,1.29 0.75,2.24 0,0.93 -0.27,1.68 -0.8,2.25 -0.54,0.57 -1.25,0.86 -2.15,0.86 -0.88,0 -1.58,-0.27 -2.1,-0.83 -0.53,-0.55 -0.8,-1.28 -0.8,-2.19 z m 1.07,-0.03 c 0,0.68 0.17,1.21 0.51,1.6 0.34,0.39 0.8,0.58 1.38,0.58 0.59,0 1.05,-0.19 1.36,-0.57 0.31,-0.38 0.46,-0.93 0.46,-1.64 0,-0.72 -0.15,-1.27 -0.46,-1.65 -0.31,-0.38 -0.77,-0.57 -1.36,-0.57 -0.59,0 -1.05,0.2 -1.38,0.6 -0.34,0.41 -0.51,0.96 -0.51,1.65 z"
   id="path581"
   inkscape:connector-curvature="0"
   style="fill:#00125e" />
		<path
   class="st14"
   d="m 882.79,533.37 h -1.03 v -3.35 c 0,-1.21 -0.44,-1.81 -1.32,-1.81 -0.46,0 -0.83,0.17 -1.13,0.51 -0.29,0.34 -0.44,0.77 -0.44,1.29 v 3.36 h -1.04 v -5.88 h 1.04 v 0.97 h 0.02 c 0.44,-0.75 1.09,-1.11 1.93,-1.11 0.64,0 1.13,0.21 1.47,0.62 0.34,0.41 0.5,1.01 0.5,1.81 z"
   id="path583"
   inkscape:connector-curvature="0"
   style="fill:#00125e" />
		<path
   class="st14"
   d="m 884.2,532.11 c 0.52,0.38 1.09,0.57 1.7,0.57 0.81,0 1.22,-0.27 1.22,-0.8 0,-0.23 -0.09,-0.41 -0.27,-0.56 -0.18,-0.15 -0.54,-0.32 -1.08,-0.53 -0.65,-0.26 -1.08,-0.52 -1.27,-0.78 -0.2,-0.26 -0.29,-0.57 -0.29,-0.93 0,-0.52 0.22,-0.94 0.66,-1.25 0.44,-0.32 0.98,-0.47 1.63,-0.47 0.5,0 0.96,0.09 1.39,0.26 v 1 c -0.44,-0.28 -0.94,-0.42 -1.49,-0.42 -0.34,0 -0.61,0.07 -0.81,0.22 -0.21,0.15 -0.32,0.34 -0.32,0.58 0,0.23 0.08,0.42 0.23,0.55 0.15,0.13 0.48,0.3 1,0.51 0.65,0.25 1.1,0.5 1.33,0.76 0.23,0.26 0.35,0.59 0.35,0.97 0,0.54 -0.22,0.97 -0.66,1.28 -0.44,0.31 -1.01,0.46 -1.71,0.46 -0.61,0 -1.14,-0.12 -1.6,-0.34 v -1.08 z"
   id="path585"
   inkscape:connector-curvature="0"
   style="fill:#00125e" />
		<path
   class="st14"
   d="m 897.88,526.08 h -2.38 v 7.29 h -1.06 v -7.29 h -2.37 v -0.95 h 5.8 v 0.95 z"
   id="path587"
   inkscape:connector-curvature="0"
   style="fill:#00125e" />
		<path
   class="st14"
   d="m 902.59,530.7 h -4.11 c 0.02,0.63 0.19,1.11 0.51,1.46 0.33,0.34 0.78,0.51 1.37,0.51 0.66,0 1.26,-0.21 1.81,-0.63 v 0.93 c -0.52,0.37 -1.2,0.55 -2.06,0.55 -0.85,0 -1.51,-0.27 -1.99,-0.81 -0.47,-0.54 -0.71,-1.29 -0.71,-2.25 0,-0.9 0.26,-1.64 0.79,-2.23 0.53,-0.59 1.17,-0.88 1.95,-0.88 0.77,0 1.37,0.25 1.8,0.74 0.43,0.5 0.65,1.19 0.65,2.08 v 0.53 z m -1.05,-0.84 c -0.01,-0.53 -0.13,-0.94 -0.38,-1.23 -0.25,-0.29 -0.6,-0.44 -1.05,-0.44 -0.41,0 -0.77,0.15 -1.07,0.46 -0.31,0.31 -0.49,0.71 -0.57,1.21 z"
   id="path589"
   inkscape:connector-curvature="0"
   style="fill:#00125e" />
		<path
   class="st14"
   d="m 908.03,533.11 c -0.45,0.27 -0.99,0.4 -1.62,0.4 -0.85,0 -1.53,-0.27 -2.05,-0.82 -0.52,-0.55 -0.78,-1.25 -0.78,-2.13 0,-0.96 0.28,-1.74 0.83,-2.33 0.56,-0.59 1.31,-0.89 2.24,-0.89 0.54,0 1,0.09 1.38,0.29 v 1.03 c -0.41,-0.3 -0.87,-0.46 -1.38,-0.46 -0.59,0 -1.08,0.21 -1.45,0.62 -0.38,0.41 -0.56,0.97 -0.56,1.65 0,0.68 0.17,1.21 0.53,1.59 0.36,0.39 0.83,0.58 1.43,0.58 0.51,0 0.98,-0.17 1.43,-0.5 z"
   id="path591"
   inkscape:connector-curvature="0"
   style="fill:#00125e" />
		<path
   class="st14"
   d="m 914.38,533.37 h -1.03 v -3.38 c 0,-1.18 -0.44,-1.78 -1.32,-1.78 -0.45,0 -0.82,0.17 -1.12,0.52 -0.3,0.35 -0.45,0.78 -0.45,1.31 v 3.33 h -1.04 v -8.71 h 1.04 v 3.79 h 0.02 c 0.45,-0.74 1.09,-1.11 1.92,-1.11 1.32,0 1.98,0.8 1.98,2.4 z"
   id="path593"
   inkscape:connector-curvature="0"
   style="fill:#00125e" />
		<path
   class="st14"
   d="m 921.09,533.37 h -1.04 v -3.35 c 0,-1.21 -0.44,-1.81 -1.32,-1.81 -0.45,0 -0.83,0.17 -1.12,0.51 -0.29,0.34 -0.44,0.77 -0.44,1.29 v 3.36 h -1.04 v -5.88 h 1.04 v 0.97 h 0.03 c 0.44,-0.75 1.08,-1.11 1.93,-1.11 0.64,0 1.13,0.21 1.47,0.62 0.34,0.41 0.5,1.01 0.5,1.81 v 3.59 z"
   id="path595"
   inkscape:connector-curvature="0"
   style="fill:#00125e" />
		<path
   class="st14"
   d="m 922.43,530.49 c 0,-0.97 0.27,-1.74 0.81,-2.3 0.54,-0.56 1.28,-0.84 2.2,-0.84 0.88,0 1.57,0.27 2.08,0.81 0.5,0.54 0.75,1.29 0.75,2.24 0,0.93 -0.27,1.68 -0.8,2.25 -0.53,0.57 -1.25,0.86 -2.15,0.86 -0.88,0 -1.58,-0.27 -2.1,-0.83 -0.53,-0.55 -0.79,-1.28 -0.79,-2.19 z m 1.06,-0.03 c 0,0.68 0.17,1.21 0.51,1.6 0.34,0.39 0.8,0.58 1.38,0.58 0.6,0 1.05,-0.19 1.37,-0.57 0.31,-0.38 0.46,-0.93 0.46,-1.64 0,-0.72 -0.16,-1.27 -0.46,-1.65 -0.31,-0.38 -0.77,-0.57 -1.37,-0.57 -0.58,0 -1.04,0.2 -1.38,0.6 -0.34,0.41 -0.51,0.96 -0.51,1.65 z"
   id="path597"
   inkscape:connector-curvature="0"
   style="fill:#00125e" />
		<path
   class="st14"
   d="m 929.73,533.37 v -8.71 h 1.04 v 8.71 z"
   id="path599"
   inkscape:connector-curvature="0"
   style="fill:#00125e" />
		<path
   class="st14"
   d="m 932.24,530.49 c 0,-0.97 0.27,-1.74 0.81,-2.3 0.54,-0.56 1.28,-0.84 2.2,-0.84 0.88,0 1.57,0.27 2.07,0.81 0.5,0.54 0.75,1.29 0.75,2.24 0,0.93 -0.27,1.68 -0.8,2.25 -0.54,0.57 -1.25,0.86 -2.15,0.86 -0.88,0 -1.58,-0.27 -2.1,-0.83 -0.52,-0.55 -0.78,-1.28 -0.78,-2.19 z m 1.06,-0.03 c 0,0.68 0.17,1.21 0.51,1.6 0.34,0.39 0.8,0.58 1.38,0.58 0.6,0 1.04,-0.19 1.36,-0.57 0.31,-0.38 0.47,-0.93 0.47,-1.64 0,-0.72 -0.16,-1.27 -0.47,-1.65 -0.31,-0.38 -0.76,-0.57 -1.36,-0.57 -0.59,0 -1.05,0.2 -1.38,0.6 -0.34,0.41 -0.51,0.96 -0.51,1.65 z"
   id="path601"
   inkscape:connector-curvature="0"
   style="fill:#00125e" />
		<path
   class="st14"
   d="m 944.64,532.88 c 0,2.18 -1.05,3.27 -3.17,3.27 -0.73,0 -1.36,-0.14 -1.9,-0.41 v -1.01 c 0.66,0.37 1.28,0.55 1.88,0.55 1.43,0 2.14,-0.75 2.14,-2.26 v -0.62 h -0.02 c -0.45,0.74 -1.11,1.11 -2,1.11 -0.74,0 -1.33,-0.26 -1.77,-0.79 -0.45,-0.53 -0.67,-1.23 -0.67,-2.1 0,-1 0.25,-1.8 0.74,-2.39 0.49,-0.59 1.14,-0.88 1.95,-0.88 0.78,0 1.36,0.31 1.74,0.94 h 0.02 v -0.8 h 1.04 v 5.39 z m -1.04,-3 c 0.01,-0.46 -0.15,-0.85 -0.45,-1.17 -0.31,-0.32 -0.69,-0.49 -1.14,-0.49 -0.57,0 -1.01,0.21 -1.32,0.62 -0.31,0.42 -0.47,0.99 -0.47,1.72 0,0.62 0.15,1.13 0.46,1.52 0.3,0.39 0.71,0.58 1.21,0.58 0.51,0 0.92,-0.19 1.24,-0.55 0.32,-0.37 0.48,-0.84 0.47,-1.41 z"
   id="path603"
   inkscape:connector-curvature="0"
   style="fill:#00125e" />
		<path
   class="st14"
   d="m 951.28,527.49 -2.66,6.77 c -0.5,1.26 -1.2,1.88 -2.1,1.88 -0.26,0 -0.48,-0.03 -0.67,-0.09 v -0.91 c 0.2,0.08 0.39,0.12 0.58,0.12 0.47,0 0.82,-0.28 1.05,-0.83 l 0.46,-1.07 -2.31,-5.87 h 1.15 l 1.53,4.42 0.13,0.48 h 0.03 c 0.02,-0.11 0.06,-0.27 0.12,-0.47 l 1.6,-4.43 z"
   id="path605"
   inkscape:connector-curvature="0"
   style="fill:#00125e" />
	</g>
	<path
   class="st14"
   d="m 622.35,532.96 c -0.61,0.32 -1.38,0.48 -2.31,0.48 -1.19,0 -2.15,-0.38 -2.86,-1.14 -0.71,-0.76 -1.07,-1.76 -1.07,-3.01 0,-1.34 0.4,-2.42 1.2,-3.24 0.8,-0.82 1.82,-1.22 3.06,-1.22 0.79,0 1.45,0.11 1.97,0.34 v 1.12 c -0.59,-0.33 -1.25,-0.49 -1.96,-0.49 -0.93,0 -1.68,0.31 -2.27,0.93 -0.59,0.62 -0.88,1.45 -0.88,2.5 0,1 0.27,1.79 0.82,2.37 0.54,0.59 1.26,0.88 2.14,0.88 0.82,0 1.54,-0.19 2.15,-0.56 v 1.04 z"
   id="path609"
   inkscape:connector-curvature="0"
   style="fill:#00125e" />
	<path
   class="st14"
   d="m 628.91,533.3 h -1.05 v -3.42 c 0,-1.2 -0.45,-1.8 -1.33,-1.8 -0.46,0 -0.83,0.17 -1.14,0.52 -0.3,0.35 -0.45,0.79 -0.45,1.32 v 3.37 h -1.05 v -8.8 h 1.05 v 3.83 h 0.02 c 0.46,-0.75 1.1,-1.12 1.94,-1.12 1.34,0 2.01,0.81 2.01,2.43 z"
   id="path611"
   inkscape:connector-curvature="0"
   style="fill:#00125e" />
	<path
   class="st14"
   d="m 630.54,525.25 c 0,-0.19 0.06,-0.34 0.19,-0.47 0.13,-0.13 0.29,-0.19 0.47,-0.19 0.19,0 0.35,0.06 0.48,0.19 0.13,0.13 0.2,0.28 0.2,0.47 0,0.19 -0.06,0.34 -0.2,0.47 -0.13,0.12 -0.29,0.18 -0.48,0.18 -0.19,0 -0.35,-0.06 -0.47,-0.18 -0.13,-0.13 -0.19,-0.28 -0.19,-0.47 z m 0.12,8.05 v -5.95 h 1.05 v 5.95 z"
   id="path613"
   inkscape:connector-curvature="0"
   style="fill:#00125e" />
	<path
   class="st14"
   d="m 640.35,527.77 c 0.59,-0.37 1.28,-0.55 2.05,-0.55 1.43,0 2.15,0.75 2.15,2.26 v 3.83 h -1.04 v -0.92 h -0.03 c -0.41,0.71 -1.02,1.06 -1.82,1.06 -0.58,0 -1.04,-0.16 -1.38,-0.47 -0.34,-0.31 -0.51,-0.73 -0.51,-1.26 0,-1.11 0.66,-1.76 1.97,-1.94 l 1.76,-0.25 c 0,-0.97 -0.4,-1.46 -1.21,-1.46 -0.71,0 -1.36,0.24 -1.95,0.72 v -1.02 z m 1.76,2.73 c -0.49,0.07 -0.82,0.19 -1.01,0.37 -0.18,0.18 -0.28,0.43 -0.28,0.75 0,0.28 0.1,0.52 0.3,0.69 0.2,0.18 0.47,0.27 0.8,0.27 0.46,0 0.84,-0.16 1.13,-0.48 0.3,-0.32 0.45,-0.73 0.45,-1.22 v -0.57 z"
   id="path615"
   inkscape:connector-curvature="0"
   style="fill:#00125e" />
	<path
   class="st14"
   d="m 638.41,533.33 h -1.05 v -3.38 c 0,-1.22 -0.45,-1.83 -1.34,-1.83 -0.46,0 -0.84,0.17 -1.14,0.52 -0.3,0.34 -0.45,0.78 -0.45,1.31 v 3.39 h -1.05 v -5.95 h 1.05 v 0.98 h 0.02 c 0.45,-0.75 1.1,-1.12 1.95,-1.12 0.65,0 1.15,0.21 1.49,0.63 0.34,0.42 0.51,1.03 0.51,1.83 v 3.62 z"
   id="path617"
   inkscape:connector-curvature="0"
   style="fill:#00125e" />
	<g
   id="g625">
		<path
   class="st14"
   d="m 778.82,527.89 c 0.59,-0.37 1.28,-0.55 2.05,-0.55 1.43,0 2.15,0.75 2.15,2.26 v 3.83 h -1.04 v -0.92 h -0.03 c -0.41,0.71 -1.02,1.06 -1.82,1.06 -0.58,0 -1.04,-0.16 -1.38,-0.47 -0.34,-0.31 -0.51,-0.73 -0.51,-1.26 0,-1.11 0.66,-1.76 1.97,-1.94 l 1.77,-0.25 c 0,-0.97 -0.4,-1.46 -1.2,-1.46 -0.72,0 -1.36,0.24 -1.95,0.72 v -1.02 z m 1.76,2.74 c -0.49,0.07 -0.82,0.19 -1.01,0.37 -0.19,0.18 -0.28,0.43 -0.28,0.75 0,0.28 0.1,0.51 0.3,0.69 0.2,0.18 0.46,0.27 0.8,0.27 0.46,0 0.84,-0.16 1.13,-0.48 0.3,-0.32 0.45,-0.73 0.45,-1.22 v -0.57 z"
   id="path619"
   inkscape:connector-curvature="0"
   style="fill:#00125e" />
		<path
   class="st14"
   d="m 789.79,533.42 h -1.05 v -3.38 c 0,-1.22 -0.45,-1.83 -1.34,-1.83 -0.46,0 -0.84,0.17 -1.14,0.52 -0.29,0.35 -0.45,0.78 -0.45,1.31 v 3.39 h -1.05 v -5.95 h 1.05 v 0.98 h 0.02 c 0.45,-0.75 1.1,-1.12 1.95,-1.12 0.65,0 1.15,0.21 1.49,0.63 0.34,0.42 0.51,1.03 0.51,1.83 v 3.62 z"
   id="path621"
   inkscape:connector-curvature="0"
   style="fill:#00125e" />
		<path
   class="st14"
   d="m 796.72,533.42 h -1.05 v -0.99 h -0.02 c -0.43,0.75 -1.11,1.13 -2.02,1.13 -0.75,0 -1.35,-0.27 -1.8,-0.8 -0.45,-0.54 -0.67,-1.26 -0.67,-2.17 0,-0.98 0.25,-1.77 0.75,-2.36 0.5,-0.59 1.16,-0.89 1.97,-0.89 0.81,0 1.4,0.31 1.77,0.95 h 0.02 v -3.66 h 1.05 z m -1.05,-3.54 c 0,-0.48 -0.15,-0.88 -0.47,-1.2 -0.31,-0.32 -0.7,-0.48 -1.16,-0.48 -0.56,0 -1,0.21 -1.32,0.63 -0.32,0.42 -0.48,0.99 -0.48,1.71 0,0.66 0.15,1.19 0.46,1.57 0.31,0.38 0.72,0.58 1.24,0.58 0.51,0 0.92,-0.19 1.25,-0.57 0.32,-0.38 0.48,-0.85 0.48,-1.41 z"
   id="path623"
   inkscape:connector-curvature="0"
   style="fill:#00125e" />
	</g>
</g>
</svg>